<?xml version="1.0" encoding="UTF-8"?>
<svg xmlns="http://www.w3.org/2000/svg" xmlns:xlink="http://www.w3.org/1999/xlink" width="30px" height="16px" viewBox="0 0 30 16" version="1.1">
<g id="surface1">
<path style=" stroke:none;fill-rule:nonzero;fill:rgb(81.568627%,81.568627%,81.568627%);fill-opacity:1;" d="M 23.125 15.972656 C 20.921875 15.800781 18.757812 15.515625 15.980469 15.042969 C 14.835938 14.851562 14.496094 14.785156 11.675781 14.222656 C 8.03125 13.5 5.746094 12.949219 3.777344 12.328125 C 1.851562 11.71875 0.511719 11.070312 0.167969 10.578125 C -0.0117188 10.324219 -0.03125 10.039062 0.109375 9.804688 C 0.179688 9.683594 0.484375 9.441406 0.855469 9.207031 C 0.984375 9.128906 1.085938 9.050781 1.085938 9.035156 C 1.085938 9.023438 1.066406 8.976562 1.039062 8.933594 C 0.898438 8.710938 0.867188 8.03125 0.925781 6.445312 C 0.992188 4.640625 1.007812 4.417969 1.101562 4.121094 C 1.1875 3.835938 1.386719 3.519531 1.554688 3.398438 C 1.644531 3.332031 1.644531 3.320312 1.632812 3.128906 C 1.613281 2.871094 1.667969 2.679688 1.804688 2.527344 C 2.039062 2.261719 2.269531 2.230469 3.867188 2.253906 L 5.117188 2.269531 L 5.246094 2.167969 C 5.316406 2.113281 5.542969 1.867188 5.746094 1.625 C 6.25 1.027344 6.78125 0.488281 7 0.355469 C 7.417969 0.101562 7.507812 0.0820312 8.3125 0.0429688 C 9.25 0.00390625 10.257812 0 11.996094 0.0351562 L 13.390625 0.0625 L 14.007812 0.191406 C 14.347656 0.261719 14.683594 0.316406 14.757812 0.316406 C 14.917969 0.316406 15.304688 0.441406 15.558594 0.574219 C 15.660156 0.628906 15.933594 0.828125 16.167969 1.023438 C 17.027344 1.726562 18.449219 2.917969 18.773438 3.207031 C 19.367188 3.734375 19.273438 3.683594 19.648438 3.683594 C 20.03125 3.683594 21.351562 3.804688 22.519531 3.945312 C 24.171875 4.144531 25.460938 4.5 26.75 5.101562 C 27.425781 5.421875 27.960938 5.765625 28.371094 6.15625 C 28.734375 6.5 28.832031 6.652344 28.863281 6.9375 C 28.886719 7.144531 28.90625 7.195312 29.066406 7.429688 C 29.257812 7.707031 29.382812 8.050781 29.425781 8.40625 C 29.457031 8.660156 29.46875 8.6875 29.554688 8.6875 C 29.734375 8.6875 29.765625 8.933594 29.679688 9.648438 C 29.65625 9.863281 29.632812 10.105469 29.632812 10.1875 C 29.632812 10.269531 29.601562 10.425781 29.566406 10.535156 C 29.5 10.722656 29.5 10.742188 29.550781 10.847656 C 29.578125 10.910156 29.667969 11.039062 29.753906 11.136719 C 29.984375 11.414062 30.035156 11.648438 29.933594 12.039062 C 29.886719 12.238281 29.84375 12.304688 29.675781 12.460938 C 29.601562 12.53125 29.539062 12.648438 29.460938 12.855469 C 29.171875 13.660156 28.703125 14.308594 28.046875 14.820312 C 27.730469 15.066406 27.019531 15.4375 26.585938 15.582031 C 25.585938 15.914062 24.253906 16.066406 23.125 15.972656 Z M 28.59375 9.441406 C 28.605469 9.21875 28.613281 9.03125 28.605469 9.023438 C 28.589844 9.007812 27.378906 9.296875 27.351562 9.324219 C 27.328125 9.347656 27.253906 10.128906 27.269531 10.160156 C 27.277344 10.171875 27.570312 10.105469 27.925781 10.011719 L 28.570312 9.84375 Z M 2.738281 3.128906 C 2.9375 3.109375 3.183594 3.09375 3.277344 3.085938 L 3.453125 3.078125 L 3.460938 2.859375 L 3.472656 2.636719 L 3.320312 2.636719 C 2.796875 2.640625 2.292969 2.859375 2.214844 3.125 C 2.191406 3.195312 2.199219 3.203125 2.28125 3.183594 C 2.332031 3.171875 2.539062 3.148438 2.738281 3.128906 Z M 4.289062 2.914062 C 4.425781 2.871094 4.734375 2.652344 4.738281 2.59375 C 4.738281 2.582031 4.554688 2.578125 4.332031 2.589844 C 3.875 2.617188 3.847656 2.628906 3.847656 2.859375 L 3.847656 3.003906 L 3.992188 2.984375 C 4.074219 2.96875 4.207031 2.941406 4.289062 2.914062 Z M 4.289062 2.914062 "/>
<path style=" stroke:none;fill-rule:nonzero;fill:rgb(69.803922%,70.980392%,69.803922%);fill-opacity:1;" d="M 25.550781 14.582031 L 23.550781 14.175781 L 22.535156 14.164062 C 21.820312 14.15625 21.320312 14.132812 20.835938 14.085938 C 20.273438 14.03125 19.253906 13.949219 19.101562 13.949219 C 19.082031 13.949219 18.902344 14.089844 18.703125 14.261719 C 18.164062 14.730469 17.722656 14.929688 17.21875 14.929688 C 16.851562 14.929688 16.277344 14.867188 16.007812 14.800781 C 15.75 14.734375 15.226562 14.480469 15.007812 14.316406 C 14.550781 13.972656 14.050781 13.359375 13.875 12.921875 C 13.796875 12.726562 13.792969 12.726562 13.585938 12.652344 C 13.46875 12.613281 13.335938 12.554688 13.289062 12.519531 C 13.238281 12.484375 13.082031 12.425781 12.941406 12.386719 C 12.796875 12.347656 11.863281 12.085938 10.863281 11.808594 L 9.046875 11.300781 L 4.414062 10.378906 L 4.367188 10.449219 C 4.152344 10.765625 3.863281 10.875 3.246094 10.875 C 2.597656 10.875 2.390625 10.816406 2.042969 10.527344 C 1.851562 10.367188 1.746094 10.21875 1.628906 9.964844 L 1.558594 9.808594 L 1.171875 9.734375 C 0.484375 9.605469 0.476562 9.601562 0.519531 9.546875 C 0.542969 9.519531 0.6875 9.410156 0.839844 9.304688 C 0.988281 9.199219 1.121094 9.097656 1.132812 9.082031 C 1.140625 9.066406 1.121094 9.015625 1.085938 8.96875 C 0.921875 8.753906 0.886719 8.082031 0.953125 6.21875 C 1.003906 4.792969 1.03125 4.421875 1.117188 4.136719 C 1.195312 3.875 1.40625 3.542969 1.5625 3.425781 L 1.679688 3.339844 L 1.664062 3.140625 C 1.644531 2.851562 1.675781 2.71875 1.808594 2.570312 C 2.0625 2.28125 2.183594 2.265625 3.835938 2.273438 L 5.167969 2.28125 L 5.359375 2.09375 C 5.464844 1.988281 5.761719 1.65625 6.019531 1.355469 C 6.5625 0.71875 6.859375 0.449219 7.195312 0.273438 C 7.515625 0.109375 7.757812 0.0703125 8.582031 0.0351562 C 9.421875 0 10.074219 0 11.867188 0.0351562 L 13.265625 0.0625 L 13.964844 0.207031 C 14.347656 0.285156 14.714844 0.347656 14.777344 0.347656 C 15.078125 0.347656 15.578125 0.578125 15.980469 0.902344 C 16.679688 1.460938 18.496094 2.988281 19.027344 3.464844 L 19.261719 3.675781 L 19.675781 3.699219 C 20.277344 3.730469 21.683594 3.867188 22.601562 3.980469 C 24.214844 4.179688 25.484375 4.535156 26.789062 5.148438 C 27.453125 5.464844 27.976562 5.804688 28.378906 6.195312 C 28.714844 6.515625 28.804688 6.667969 28.839844 6.949219 C 28.867188 7.15625 28.886719 7.210938 29.042969 7.4375 C 29.230469 7.714844 29.347656 8.035156 29.410156 8.4375 C 29.453125 8.707031 29.457031 8.71875 29.550781 8.71875 C 29.675781 8.71875 29.703125 8.792969 29.699219 9.113281 C 29.699219 9.273438 29.691406 9.417969 29.683594 9.433594 C 29.675781 9.445312 29.652344 9.664062 29.636719 9.914062 C 29.613281 10.199219 29.578125 10.4375 29.539062 10.550781 C 29.484375 10.707031 29.484375 10.738281 29.523438 10.839844 C 29.574219 10.957031 29.707031 11.140625 29.832031 11.265625 C 29.933594 11.359375 29.996094 11.613281 29.972656 11.828125 C 29.945312 12.0625 29.851562 12.25 29.675781 12.433594 C 29.554688 12.554688 29.496094 12.65625 29.425781 12.839844 C 29.105469 13.714844 28.574219 14.40625 27.871094 14.855469 C 27.785156 14.914062 27.675781 14.964844 27.632812 14.972656 C 27.589844 14.984375 26.652344 14.808594 25.550781 14.582031 Z M 27.964844 10.027344 C 28.445312 9.902344 28.570312 9.859375 28.589844 9.808594 C 28.601562 9.773438 28.613281 9.574219 28.621094 9.371094 C 28.628906 9.058594 28.625 8.996094 28.585938 9.003906 C 28.453125 9.019531 27.359375 9.28125 27.339844 9.300781 C 27.3125 9.328125 27.253906 9.863281 27.253906 10.066406 C 27.25 10.164062 27.265625 10.191406 27.308594 10.1875 C 27.335938 10.1875 27.632812 10.117188 27.964844 10.027344 Z M 24.703125 8.070312 C 24.726562 8.042969 24.742188 7.957031 24.742188 7.878906 C 24.742188 7.773438 24.726562 7.730469 24.679688 7.703125 C 24.605469 7.664062 24.601562 7.671875 24.570312 7.886719 C 24.558594 7.957031 24.539062 8.050781 24.53125 8.09375 C 24.515625 8.160156 24.519531 8.167969 24.589844 8.148438 C 24.628906 8.132812 24.679688 8.101562 24.703125 8.070312 Z M 28.6875 6.882812 C 28.65625 6.765625 28.621094 6.753906 28.5625 6.84375 C 28.53125 6.894531 28.539062 6.929688 28.609375 7.050781 L 28.695312 7.199219 L 28.707031 7.09375 C 28.710938 7.039062 28.703125 6.945312 28.6875 6.882812 Z M 2.371094 3.191406 C 2.441406 3.175781 2.710938 3.148438 2.96875 3.132812 C 3.226562 3.117188 3.441406 3.101562 3.453125 3.089844 C 3.460938 3.082031 3.46875 2.972656 3.476562 2.847656 L 3.484375 2.621094 L 3.230469 2.632812 C 2.753906 2.652344 2.390625 2.796875 2.238281 3.03125 C 2.113281 3.21875 2.140625 3.253906 2.371094 3.191406 Z M 4.144531 2.976562 C 4.269531 2.949219 4.410156 2.902344 4.453125 2.875 C 4.578125 2.792969 4.800781 2.59375 4.800781 2.5625 C 4.800781 2.539062 4.539062 2.546875 4.050781 2.59375 L 3.859375 2.609375 L 3.839844 2.792969 C 3.8125 3.0625 3.804688 3.054688 4.144531 2.976562 Z M 4.144531 2.976562 "/>
<path style=" stroke:none;fill-rule:nonzero;fill:rgb(43.137255%,74.117647%,74.117647%);fill-opacity:1;" d="M 16.472656 14.859375 C 15.835938 14.789062 15.257812 14.519531 14.75 14.054688 C 14.359375 13.695312 14.171875 13.453125 13.972656 13.03125 L 13.804688 12.683594 L 13.628906 12.625 C 13.535156 12.597656 13.402344 12.535156 13.339844 12.496094 C 13.277344 12.453125 13.164062 12.402344 13.085938 12.378906 C 13.007812 12.359375 11.910156 12.050781 10.644531 11.695312 C 9.378906 11.335938 8.070312 10.972656 7.738281 10.878906 C 7.125 10.710938 6.136719 10.53125 4.964844 10.375 L 4.382812 10.296875 L 4.332031 10.382812 C 4.105469 10.761719 3.835938 10.859375 3.109375 10.835938 C 2.53125 10.816406 2.40625 10.777344 2.082031 10.507812 C 1.898438 10.351562 1.839844 10.28125 1.742188 10.078125 C 1.679688 9.941406 1.597656 9.722656 1.558594 9.585938 C 1.496094 9.371094 1.46875 9.324219 1.34375 9.21875 C 1.023438 8.953125 0.949219 8.695312 0.945312 7.804688 C 0.945312 7.054688 1.019531 4.847656 1.058594 4.539062 C 1.117188 4.058594 1.34375 3.59375 1.605469 3.417969 L 1.710938 3.347656 L 1.695312 3.066406 C 1.683594 2.796875 1.6875 2.777344 1.785156 2.632812 C 1.839844 2.550781 1.929688 2.457031 1.988281 2.429688 C 2.246094 2.304688 2.367188 2.292969 3.789062 2.292969 L 5.167969 2.292969 L 5.269531 2.214844 C 5.324219 2.167969 5.554688 1.917969 5.777344 1.65625 C 6.597656 0.699219 6.832031 0.480469 7.257812 0.269531 C 7.558594 0.121094 7.703125 0.101562 8.804688 0.0390625 C 9.59375 -0.0078125 9.894531 -0.0117188 10.703125 0.0195312 C 11.230469 0.0390625 11.992188 0.0546875 12.402344 0.0546875 L 13.140625 0.0546875 L 13.851562 0.203125 C 14.242188 0.285156 14.621094 0.347656 14.699219 0.347656 C 14.851562 0.347656 15.285156 0.484375 15.519531 0.601562 C 15.605469 0.648438 15.761719 0.75 15.867188 0.832031 C 16.300781 1.175781 18.410156 2.941406 18.820312 3.308594 L 19.265625 3.707031 L 19.710938 3.726562 C 20.277344 3.753906 21.644531 3.882812 22.648438 4.007812 C 24.191406 4.203125 25.445312 4.550781 26.691406 5.128906 C 27.402344 5.457031 27.90625 5.78125 28.328125 6.175781 C 28.695312 6.519531 28.792969 6.675781 28.820312 6.953125 C 28.839844 7.152344 28.859375 7.199219 29.015625 7.433594 C 29.195312 7.699219 29.378906 8.179688 29.378906 8.402344 C 29.382812 8.457031 29.398438 8.558594 29.421875 8.621094 C 29.449219 8.710938 29.476562 8.734375 29.535156 8.734375 C 29.632812 8.734375 29.695312 8.847656 29.695312 9.011719 C 29.695312 9.074219 29.675781 9.304688 29.648438 9.519531 C 29.621094 9.734375 29.601562 10.003906 29.601562 10.113281 C 29.601562 10.242188 29.578125 10.386719 29.539062 10.492188 C 29.503906 10.585938 29.472656 10.703125 29.472656 10.75 C 29.472656 10.832031 29.613281 11.042969 29.859375 11.34375 C 29.953125 11.457031 29.960938 11.484375 29.964844 11.703125 C 29.96875 12.015625 29.890625 12.171875 29.558594 12.523438 C 29.3125 12.789062 29.28125 12.808594 28.917969 12.96875 C 27.929688 13.402344 24.945312 13.984375 23.011719 14.117188 C 22.464844 14.152344 21.703125 14.121094 20.550781 14.015625 C 20.175781 13.980469 19.6875 13.945312 19.464844 13.933594 L 19.058594 13.910156 L 18.875 14.066406 C 18.777344 14.152344 18.621094 14.292969 18.53125 14.375 C 18.335938 14.554688 18.011719 14.734375 17.714844 14.828125 C 17.476562 14.902344 16.972656 14.917969 16.472656 14.859375 Z M 27.816406 10.089844 C 28.089844 10.015625 28.378906 9.9375 28.457031 9.917969 L 28.601562 9.878906 L 28.621094 9.683594 C 28.632812 9.574219 28.644531 9.371094 28.644531 9.234375 C 28.648438 9.027344 28.640625 8.980469 28.601562 8.980469 C 28.53125 8.980469 27.4375 9.238281 27.359375 9.269531 C 27.300781 9.296875 27.289062 9.347656 27.257812 9.703125 C 27.210938 10.210938 27.210938 10.222656 27.269531 10.222656 C 27.296875 10.222656 27.542969 10.164062 27.816406 10.089844 Z M 23.921875 8.3125 C 24.15625 8.269531 24.414062 8.222656 24.5 8.210938 C 24.585938 8.199219 24.679688 8.160156 24.710938 8.128906 C 24.789062 8.050781 24.820312 7.855469 24.769531 7.75 C 24.691406 7.585938 23.730469 7.117188 23.320312 7.046875 C 23.195312 7.023438 23.085938 7.015625 23.074219 7.023438 C 23.066406 7.035156 23.003906 7.347656 22.9375 7.71875 L 22.816406 8.390625 L 23.160156 8.390625 C 23.382812 8.390625 23.644531 8.363281 23.921875 8.3125 Z M 12.085938 7.851562 C 12.125 7.742188 12.105469 7.507812 12.054688 7.488281 C 11.988281 7.460938 11.976562 7.480469 11.957031 7.632812 C 11.933594 7.816406 12.035156 7.988281 12.085938 7.851562 Z M 28.730469 6.996094 C 28.710938 6.820312 28.6875 6.753906 28.625 6.683594 C 28.527344 6.578125 28.457031 6.613281 28.457031 6.769531 C 28.457031 6.875 28.660156 7.214844 28.71875 7.214844 C 28.738281 7.214844 28.742188 7.132812 28.730469 6.996094 Z M 7.5 4.148438 C 7.5 4.136719 7.398438 4.058594 7.277344 3.980469 C 7.039062 3.824219 7.019531 3.789062 7.015625 3.554688 C 7.011719 3.390625 7.074219 3.25 7.222656 3.078125 C 7.355469 2.917969 7.519531 2.839844 7.804688 2.796875 C 8.058594 2.753906 8.339844 2.789062 8.519531 2.882812 C 8.648438 2.953125 8.945312 3.300781 9.089844 3.554688 C 9.164062 3.679688 9.238281 3.78125 9.253906 3.78125 C 9.273438 3.78125 9.28125 3.628906 9.273438 3.390625 L 9.261719 3 L 8.152344 1.304688 L 7.960938 1.289062 C 7.765625 1.269531 7.234375 1.363281 7.105469 1.441406 C 7.070312 1.460938 6.957031 1.570312 6.851562 1.679688 C 6.667969 1.882812 6.664062 1.890625 6.574219 2.269531 C 6.453125 2.78125 6.25 3.878906 6.273438 3.902344 C 6.320312 3.953125 6.941406 4.089844 7.476562 4.171875 C 7.492188 4.171875 7.5 4.164062 7.5 4.148438 Z M 10.992188 4.136719 C 10.992188 4.066406 10.324219 2.554688 10.253906 2.46875 L 10.183594 2.378906 L 9.964844 2.425781 C 9.84375 2.453125 9.738281 2.480469 9.730469 2.488281 C 9.703125 2.519531 9.660156 3.125 9.660156 3.527344 L 9.660156 3.976562 L 9.765625 4.058594 C 9.878906 4.144531 9.960938 4.15625 10.636719 4.167969 C 10.882812 4.171875 10.992188 4.164062 10.992188 4.136719 Z M 12.199219 3.730469 C 12.4375 3.613281 12.65625 3.5625 13.136719 3.503906 C 14.058594 3.394531 14.492188 3.40625 14.769531 3.550781 C 14.875 3.605469 14.9375 3.609375 15.660156 3.582031 C 16.476562 3.550781 16.511719 3.542969 16.734375 3.375 C 16.921875 3.234375 17.21875 3.183594 17.796875 3.203125 C 18.082031 3.214844 18.359375 3.230469 18.417969 3.246094 C 18.472656 3.257812 18.519531 3.253906 18.519531 3.238281 C 18.515625 3.183594 15.777344 0.925781 15.566406 0.800781 C 15.273438 0.628906 14.96875 0.539062 14.691406 0.542969 C 14.171875 0.550781 12.621094 0.609375 12.40625 0.628906 L 12.179688 0.652344 L 11.730469 1.613281 C 11.484375 2.140625 11.28125 2.605469 11.28125 2.644531 C 11.28125 2.707031 11.492188 3.238281 11.753906 3.824219 L 11.824219 3.984375 L 11.925781 3.898438 C 11.980469 3.851562 12.105469 3.773438 12.199219 3.730469 Z M 2.5 3.199219 C 2.621094 3.179688 2.886719 3.15625 3.085938 3.144531 C 3.289062 3.136719 3.460938 3.117188 3.472656 3.101562 C 3.484375 3.089844 3.5 2.976562 3.503906 2.851562 L 3.515625 2.621094 L 3.183594 2.625 C 2.8125 2.628906 2.597656 2.691406 2.367188 2.863281 C 2.175781 3.007812 2.070312 3.292969 2.226562 3.246094 C 2.253906 3.238281 2.378906 3.214844 2.5 3.199219 Z M 4.277344 2.960938 C 4.472656 2.898438 4.832031 2.632812 4.832031 2.554688 C 4.832031 2.515625 4.578125 2.519531 4.054688 2.566406 L 3.832031 2.589844 L 3.824219 2.78125 C 3.820312 2.886719 3.820312 2.996094 3.832031 3.019531 C 3.851562 3.074219 3.976562 3.058594 4.277344 2.960938 Z M 4.277344 2.960938 "/>
<path style=" stroke:none;fill-rule:nonzero;fill:rgb(64.313725%,68.235294%,43.529412%);fill-opacity:1;" d="M 16.472656 14.859375 C 15.835938 14.789062 15.257812 14.519531 14.75 14.054688 C 14.359375 13.695312 14.171875 13.453125 13.972656 13.03125 L 13.804688 12.683594 L 13.628906 12.625 C 13.535156 12.597656 13.402344 12.535156 13.339844 12.496094 C 13.277344 12.453125 13.164062 12.402344 13.085938 12.378906 C 13.007812 12.359375 11.910156 12.050781 10.644531 11.695312 C 9.378906 11.335938 8.070312 10.972656 7.738281 10.878906 C 7.125 10.710938 6.136719 10.53125 4.964844 10.375 L 4.382812 10.296875 L 4.332031 10.382812 C 4.105469 10.761719 3.835938 10.859375 3.109375 10.835938 C 2.53125 10.816406 2.40625 10.777344 2.082031 10.507812 C 1.898438 10.351562 1.839844 10.28125 1.742188 10.078125 C 1.679688 9.941406 1.597656 9.722656 1.558594 9.585938 C 1.496094 9.371094 1.46875 9.324219 1.34375 9.21875 C 1.023438 8.953125 0.949219 8.695312 0.945312 7.804688 C 0.945312 7.054688 1.019531 4.847656 1.058594 4.539062 C 1.117188 4.058594 1.34375 3.59375 1.605469 3.417969 L 1.710938 3.347656 L 1.695312 3.066406 C 1.683594 2.796875 1.6875 2.777344 1.785156 2.632812 C 1.839844 2.550781 1.929688 2.457031 1.988281 2.429688 C 2.246094 2.304688 2.367188 2.292969 3.789062 2.292969 L 5.167969 2.292969 L 5.269531 2.214844 C 5.324219 2.167969 5.554688 1.917969 5.777344 1.65625 C 6.597656 0.699219 6.832031 0.480469 7.257812 0.269531 C 7.558594 0.121094 7.703125 0.101562 8.804688 0.0390625 C 9.59375 -0.0078125 9.894531 -0.0117188 10.703125 0.0195312 C 11.230469 0.0390625 11.992188 0.0546875 12.402344 0.0546875 L 13.140625 0.0546875 L 13.851562 0.203125 C 14.242188 0.285156 14.621094 0.347656 14.699219 0.347656 C 14.851562 0.347656 15.285156 0.484375 15.519531 0.601562 C 15.605469 0.648438 15.761719 0.75 15.867188 0.832031 C 16.300781 1.175781 18.410156 2.941406 18.820312 3.308594 L 19.265625 3.707031 L 19.710938 3.726562 C 20.277344 3.753906 21.644531 3.882812 22.648438 4.007812 C 24.191406 4.203125 25.445312 4.550781 26.691406 5.128906 C 27.402344 5.457031 27.90625 5.78125 28.328125 6.175781 C 28.695312 6.519531 28.792969 6.675781 28.820312 6.953125 C 28.839844 7.152344 28.859375 7.199219 29.015625 7.433594 C 29.195312 7.699219 29.378906 8.179688 29.378906 8.402344 C 29.382812 8.457031 29.398438 8.558594 29.421875 8.621094 C 29.449219 8.710938 29.476562 8.734375 29.535156 8.734375 C 29.632812 8.734375 29.695312 8.847656 29.695312 9.011719 C 29.695312 9.074219 29.675781 9.304688 29.648438 9.519531 C 29.621094 9.734375 29.601562 10.003906 29.601562 10.113281 C 29.601562 10.242188 29.578125 10.386719 29.539062 10.492188 C 29.503906 10.585938 29.472656 10.703125 29.472656 10.75 C 29.472656 10.832031 29.613281 11.042969 29.859375 11.34375 C 29.953125 11.457031 29.960938 11.484375 29.964844 11.703125 C 29.96875 12.015625 29.890625 12.171875 29.558594 12.523438 C 29.3125 12.789062 29.28125 12.808594 28.917969 12.96875 C 27.929688 13.402344 24.945312 13.984375 23.011719 14.117188 C 22.464844 14.152344 21.703125 14.121094 20.550781 14.015625 C 20.175781 13.980469 19.6875 13.945312 19.464844 13.933594 L 19.058594 13.910156 L 18.875 14.066406 C 18.777344 14.152344 18.621094 14.292969 18.53125 14.375 C 18.335938 14.554688 18.011719 14.734375 17.714844 14.828125 C 17.476562 14.902344 16.972656 14.917969 16.472656 14.859375 Z M 27.816406 10.089844 C 28.089844 10.015625 28.378906 9.9375 28.457031 9.917969 L 28.601562 9.878906 L 28.621094 9.683594 C 28.632812 9.574219 28.644531 9.371094 28.644531 9.234375 C 28.648438 9.027344 28.640625 8.980469 28.601562 8.980469 C 28.53125 8.980469 27.4375 9.238281 27.359375 9.269531 C 27.300781 9.296875 27.289062 9.347656 27.257812 9.703125 C 27.210938 10.210938 27.210938 10.222656 27.269531 10.222656 C 27.296875 10.222656 27.542969 10.164062 27.816406 10.089844 Z M 23.921875 8.3125 C 24.15625 8.269531 24.414062 8.222656 24.5 8.210938 C 24.585938 8.199219 24.679688 8.160156 24.710938 8.128906 C 24.789062 8.050781 24.820312 7.855469 24.769531 7.75 C 24.691406 7.585938 23.730469 7.117188 23.320312 7.046875 C 23.195312 7.023438 23.085938 7.015625 23.074219 7.023438 C 23.066406 7.035156 23.003906 7.347656 22.9375 7.71875 L 22.816406 8.390625 L 23.160156 8.390625 C 23.382812 8.390625 23.644531 8.363281 23.921875 8.3125 Z M 12.085938 7.851562 C 12.125 7.742188 12.105469 7.507812 12.054688 7.488281 C 11.988281 7.460938 11.976562 7.480469 11.957031 7.632812 C 11.933594 7.816406 12.035156 7.988281 12.085938 7.851562 Z M 28.730469 6.996094 C 28.710938 6.820312 28.6875 6.753906 28.625 6.683594 C 28.527344 6.578125 28.457031 6.613281 28.457031 6.769531 C 28.457031 6.875 28.660156 7.214844 28.71875 7.214844 C 28.738281 7.214844 28.742188 7.132812 28.730469 6.996094 Z M 7.5 4.148438 C 7.5 4.136719 7.398438 4.058594 7.277344 3.980469 C 7.039062 3.824219 7.019531 3.789062 7.015625 3.554688 C 7.011719 3.390625 7.074219 3.25 7.222656 3.078125 C 7.355469 2.917969 7.519531 2.839844 7.804688 2.796875 C 8.058594 2.753906 8.339844 2.789062 8.519531 2.882812 C 8.648438 2.953125 8.945312 3.300781 9.089844 3.554688 C 9.164062 3.679688 9.234375 3.78125 9.246094 3.78125 C 9.261719 3.78125 9.378906 1.617188 9.375 1.320312 L 9.375 1.226562 L 8.574219 1.25 C 7.773438 1.269531 7.28125 1.335938 7.105469 1.441406 C 7.070312 1.460938 6.957031 1.570312 6.851562 1.679688 C 6.667969 1.882812 6.664062 1.890625 6.574219 2.269531 C 6.453125 2.78125 6.25 3.878906 6.273438 3.902344 C 6.320312 3.953125 6.941406 4.089844 7.476562 4.171875 C 7.492188 4.171875 7.5 4.164062 7.5 4.148438 Z M 10.992188 4.136719 C 10.992188 4.117188 10.886719 3.851562 10.75 3.542969 C 10.617188 3.234375 10.382812 2.679688 10.226562 2.3125 C 9.9375 1.628906 9.871094 1.492188 9.820312 1.492188 C 9.75 1.492188 9.714844 1.808594 9.683594 2.847656 L 9.648438 3.957031 L 9.753906 4.046875 C 9.871094 4.148438 9.925781 4.15625 10.636719 4.167969 C 10.878906 4.171875 10.992188 4.164062 10.992188 4.136719 Z M 12.199219 3.730469 C 12.4375 3.613281 12.65625 3.5625 13.136719 3.503906 C 14.058594 3.394531 14.492188 3.40625 14.769531 3.550781 C 14.875 3.605469 14.9375 3.609375 15.660156 3.582031 C 16.476562 3.550781 16.511719 3.542969 16.734375 3.375 C 16.921875 3.234375 17.21875 3.183594 17.796875 3.203125 C 18.082031 3.214844 18.359375 3.230469 18.417969 3.246094 C 18.472656 3.257812 18.519531 3.253906 18.519531 3.238281 C 18.515625 3.207031 17.988281 2.761719 16.550781 1.578125 C 15.683594 0.863281 15.476562 0.722656 15.101562 0.597656 C 15.015625 0.566406 14.898438 0.542969 14.847656 0.539062 C 14.585938 0.527344 11.921875 0.617188 11.675781 0.648438 C 11.21875 0.703125 10.726562 0.808594 10.671875 0.863281 C 10.640625 0.890625 10.59375 0.976562 10.570312 1.054688 C 10.527344 1.1875 10.527344 1.203125 10.585938 1.320312 C 10.695312 1.539062 11.761719 3.828125 11.792969 3.910156 L 11.820312 3.984375 L 11.921875 3.898438 C 11.980469 3.851562 12.105469 3.773438 12.199219 3.730469 Z M 2.5 3.199219 C 2.621094 3.179688 2.886719 3.15625 3.085938 3.144531 C 3.289062 3.136719 3.460938 3.117188 3.472656 3.101562 C 3.484375 3.089844 3.5 2.976562 3.503906 2.851562 L 3.515625 2.621094 L 3.183594 2.625 C 2.8125 2.628906 2.597656 2.691406 2.367188 2.863281 C 2.175781 3.007812 2.070312 3.292969 2.226562 3.246094 C 2.253906 3.238281 2.378906 3.214844 2.5 3.199219 Z M 4.277344 2.960938 C 4.472656 2.898438 4.832031 2.632812 4.832031 2.554688 C 4.832031 2.515625 4.578125 2.519531 4.054688 2.566406 L 3.832031 2.589844 L 3.824219 2.78125 C 3.820312 2.886719 3.820312 2.996094 3.832031 3.019531 C 3.851562 3.074219 3.976562 3.058594 4.277344 2.960938 Z M 4.277344 2.960938 "/>
<path style=" stroke:none;fill-rule:nonzero;fill:rgb(43.921569%,48.627451%,58.039216%);fill-opacity:1;" d="M 16.472656 14.859375 C 15.839844 14.789062 15.269531 14.523438 14.765625 14.066406 C 14.371094 13.710938 14.167969 13.445312 13.96875 13.03125 L 13.804688 12.683594 L 13.628906 12.625 C 13.535156 12.597656 13.402344 12.535156 13.339844 12.496094 C 13.277344 12.453125 13.164062 12.402344 13.085938 12.378906 C 13.007812 12.359375 11.910156 12.050781 10.644531 11.695312 C 9.378906 11.335938 8.070312 10.972656 7.738281 10.878906 C 7.125 10.710938 6.136719 10.53125 4.964844 10.375 L 4.382812 10.296875 L 4.332031 10.382812 C 4.105469 10.761719 3.820312 10.863281 3.082031 10.835938 C 2.535156 10.816406 2.398438 10.773438 2.082031 10.507812 C 1.898438 10.351562 1.839844 10.28125 1.742188 10.078125 C 1.679688 9.941406 1.597656 9.722656 1.558594 9.585938 C 1.496094 9.371094 1.46875 9.324219 1.34375 9.21875 C 1.023438 8.953125 0.949219 8.695312 0.945312 7.804688 C 0.945312 7.054688 1.019531 4.847656 1.058594 4.539062 C 1.117188 4.058594 1.34375 3.59375 1.605469 3.417969 L 1.710938 3.347656 L 1.695312 3.066406 C 1.683594 2.796875 1.6875 2.777344 1.785156 2.632812 C 1.839844 2.550781 1.929688 2.457031 1.988281 2.429688 C 2.246094 2.304688 2.367188 2.292969 3.789062 2.292969 L 5.167969 2.292969 L 5.269531 2.214844 C 5.324219 2.167969 5.554688 1.917969 5.777344 1.65625 C 6.597656 0.699219 6.832031 0.480469 7.257812 0.269531 C 7.558594 0.121094 7.703125 0.101562 8.804688 0.0390625 C 9.59375 -0.0078125 9.894531 -0.0117188 10.703125 0.0195312 C 11.230469 0.0390625 11.992188 0.0546875 12.402344 0.0546875 L 13.140625 0.0546875 L 13.851562 0.203125 C 14.242188 0.285156 14.621094 0.347656 14.699219 0.347656 C 14.851562 0.347656 15.285156 0.484375 15.519531 0.601562 C 15.605469 0.648438 15.761719 0.75 15.867188 0.832031 C 16.300781 1.175781 18.410156 2.941406 18.820312 3.308594 L 19.265625 3.707031 L 19.710938 3.726562 C 20.277344 3.753906 21.644531 3.882812 22.648438 4.007812 C 24.191406 4.203125 25.445312 4.550781 26.691406 5.128906 C 27.402344 5.457031 27.90625 5.78125 28.328125 6.175781 C 28.695312 6.519531 28.792969 6.675781 28.820312 6.953125 C 28.839844 7.152344 28.859375 7.199219 29.015625 7.433594 C 29.195312 7.699219 29.378906 8.179688 29.378906 8.402344 C 29.382812 8.457031 29.398438 8.558594 29.421875 8.621094 C 29.449219 8.710938 29.476562 8.734375 29.535156 8.734375 C 29.632812 8.734375 29.695312 8.847656 29.695312 9.011719 C 29.695312 9.074219 29.675781 9.304688 29.648438 9.519531 C 29.621094 9.734375 29.601562 10.003906 29.601562 10.113281 C 29.601562 10.242188 29.578125 10.386719 29.539062 10.492188 C 29.503906 10.585938 29.472656 10.703125 29.472656 10.75 C 29.472656 10.832031 29.613281 11.042969 29.859375 11.34375 C 29.953125 11.457031 29.960938 11.484375 29.964844 11.703125 C 29.96875 12.015625 29.890625 12.171875 29.558594 12.523438 C 29.3125 12.789062 29.28125 12.808594 28.917969 12.96875 C 27.929688 13.402344 24.945312 13.984375 23.011719 14.117188 C 22.464844 14.152344 21.703125 14.121094 20.550781 14.015625 C 20.175781 13.980469 19.6875 13.945312 19.464844 13.933594 L 19.058594 13.910156 L 18.875 14.066406 C 18.777344 14.152344 18.621094 14.292969 18.53125 14.375 C 18.335938 14.554688 18.011719 14.734375 17.714844 14.828125 C 17.476562 14.902344 16.972656 14.917969 16.472656 14.859375 Z M 27.816406 10.089844 C 28.089844 10.015625 28.378906 9.9375 28.457031 9.917969 L 28.601562 9.878906 L 28.621094 9.683594 C 28.632812 9.574219 28.644531 9.371094 28.644531 9.234375 C 28.648438 9.027344 28.640625 8.980469 28.601562 8.980469 C 28.53125 8.980469 27.4375 9.238281 27.359375 9.269531 C 27.300781 9.296875 27.289062 9.347656 27.257812 9.703125 C 27.210938 10.210938 27.210938 10.222656 27.269531 10.222656 C 27.296875 10.222656 27.542969 10.164062 27.816406 10.089844 Z M 23.785156 8.355469 C 23.953125 8.320312 24.210938 8.269531 24.359375 8.242188 C 24.507812 8.214844 24.660156 8.171875 24.699219 8.148438 C 24.796875 8.082031 24.835938 7.835938 24.761719 7.722656 C 24.699219 7.625 24.246094 7.367188 23.789062 7.167969 C 23.316406 6.960938 22.511719 6.824219 21.792969 6.824219 C 21.214844 6.824219 21.019531 6.851562 20.773438 6.976562 C 20.632812 7.050781 20.585938 7.097656 20.527344 7.214844 C 20.4375 7.402344 20.375 7.808594 20.421875 7.894531 C 20.441406 7.929688 20.554688 8.035156 20.671875 8.125 L 20.894531 8.292969 L 21.347656 8.34375 C 21.601562 8.371094 21.898438 8.40625 22.011719 8.421875 C 22.351562 8.472656 23.425781 8.433594 23.785156 8.355469 Z M 12.085938 7.851562 C 12.125 7.742188 12.105469 7.507812 12.054688 7.488281 C 11.988281 7.460938 11.976562 7.480469 11.957031 7.632812 C 11.933594 7.816406 12.035156 7.988281 12.085938 7.851562 Z M 28.726562 6.996094 C 28.714844 6.867188 28.679688 6.738281 28.648438 6.691406 C 28.5625 6.566406 28.367188 6.382812 28.34375 6.40625 C 28.277344 6.472656 28.621094 7.214844 28.71875 7.214844 C 28.738281 7.214844 28.742188 7.136719 28.726562 6.996094 Z M 7.5 4.148438 C 7.5 4.136719 7.398438 4.058594 7.277344 3.980469 C 7.039062 3.824219 7.019531 3.789062 7.015625 3.554688 C 7.011719 3.390625 7.074219 3.25 7.222656 3.078125 C 7.355469 2.917969 7.519531 2.839844 7.804688 2.796875 C 8.058594 2.753906 8.339844 2.789062 8.519531 2.882812 C 8.648438 2.953125 8.945312 3.300781 9.089844 3.554688 C 9.164062 3.679688 9.234375 3.78125 9.246094 3.78125 C 9.261719 3.78125 9.378906 1.617188 9.375 1.320312 L 9.375 1.226562 L 8.574219 1.25 C 7.773438 1.269531 7.28125 1.335938 7.105469 1.441406 C 7.070312 1.460938 6.957031 1.570312 6.851562 1.679688 C 6.667969 1.882812 6.664062 1.890625 6.574219 2.269531 C 6.453125 2.78125 6.25 3.878906 6.273438 3.902344 C 6.320312 3.953125 6.941406 4.089844 7.476562 4.171875 C 7.492188 4.171875 7.5 4.164062 7.5 4.148438 Z M 10.992188 4.136719 C 10.992188 4.117188 10.886719 3.851562 10.75 3.542969 C 10.617188 3.234375 10.382812 2.679688 10.226562 2.3125 C 9.9375 1.628906 9.871094 1.492188 9.820312 1.492188 C 9.75 1.492188 9.714844 1.808594 9.683594 2.847656 L 9.648438 3.957031 L 9.753906 4.046875 C 9.871094 4.148438 9.925781 4.15625 10.636719 4.167969 C 10.878906 4.171875 10.992188 4.164062 10.992188 4.136719 Z M 12.199219 3.730469 C 12.4375 3.613281 12.65625 3.5625 13.136719 3.503906 C 14.058594 3.394531 14.492188 3.40625 14.769531 3.550781 C 14.875 3.605469 14.9375 3.609375 15.660156 3.582031 C 16.476562 3.550781 16.511719 3.542969 16.734375 3.375 C 16.921875 3.234375 17.21875 3.183594 17.796875 3.203125 C 18.082031 3.214844 18.359375 3.230469 18.417969 3.246094 C 18.472656 3.257812 18.519531 3.253906 18.519531 3.238281 C 18.515625 3.207031 17.988281 2.761719 16.550781 1.578125 C 15.683594 0.863281 15.476562 0.722656 15.101562 0.597656 C 15.015625 0.566406 14.898438 0.542969 14.847656 0.539062 C 14.585938 0.527344 11.921875 0.617188 11.675781 0.648438 C 11.21875 0.703125 10.726562 0.808594 10.671875 0.863281 C 10.640625 0.890625 10.59375 0.976562 10.570312 1.054688 C 10.527344 1.1875 10.527344 1.203125 10.585938 1.320312 C 10.695312 1.539062 11.761719 3.828125 11.792969 3.910156 L 11.820312 3.984375 L 11.921875 3.898438 C 11.980469 3.851562 12.105469 3.773438 12.199219 3.730469 Z M 2.5 3.199219 C 2.621094 3.179688 2.886719 3.15625 3.085938 3.144531 C 3.289062 3.136719 3.460938 3.117188 3.472656 3.101562 C 3.484375 3.089844 3.5 2.976562 3.503906 2.851562 L 3.515625 2.621094 L 3.183594 2.625 C 2.8125 2.628906 2.597656 2.691406 2.367188 2.863281 C 2.175781 3.007812 2.070312 3.292969 2.226562 3.246094 C 2.253906 3.238281 2.378906 3.214844 2.5 3.199219 Z M 4.277344 2.960938 C 4.472656 2.898438 4.832031 2.632812 4.832031 2.554688 C 4.832031 2.515625 4.578125 2.519531 4.054688 2.566406 L 3.832031 2.589844 L 3.824219 2.78125 C 3.820312 2.886719 3.820312 2.996094 3.832031 3.019531 C 3.851562 3.074219 3.976562 3.058594 4.277344 2.960938 Z M 4.277344 2.960938 "/>
<path style=" stroke:none;fill-rule:nonzero;fill:rgb(34.117647%,35.686275%,39.215686%);fill-opacity:1;" d="M 16.769531 14.867188 C 16.222656 14.828125 15.917969 14.753906 15.542969 14.570312 C 15.148438 14.375 15.019531 14.285156 14.683594 13.964844 C 14.296875 13.59375 14.042969 13.222656 13.898438 12.832031 C 13.847656 12.691406 13.832031 12.671875 13.679688 12.625 C 13.589844 12.59375 13.445312 12.527344 13.355469 12.476562 C 13.214844 12.394531 10.652344 11.652344 7.675781 10.832031 C 7.148438 10.6875 6.144531 10.503906 5.050781 10.355469 C 4.386719 10.265625 4.371094 10.265625 4.3125 10.382812 C 4.234375 10.535156 4.015625 10.707031 3.824219 10.765625 C 3.695312 10.800781 3.523438 10.816406 3.199219 10.8125 C 2.601562 10.808594 2.441406 10.765625 2.136719 10.523438 C 1.863281 10.304688 1.769531 10.152344 1.613281 9.675781 C 1.511719 9.371094 1.488281 9.332031 1.285156 9.121094 C 1.085938 8.910156 1.066406 8.878906 1.027344 8.683594 C 1.003906 8.566406 0.980469 8.296875 0.96875 8.082031 C 0.953125 7.714844 1.035156 5.007812 1.074219 4.589844 C 1.121094 4.058594 1.386719 3.550781 1.699219 3.386719 L 1.824219 3.320312 L 1.753906 3.269531 C 1.6875 3.21875 1.683594 3.199219 1.699219 2.988281 C 1.722656 2.703125 1.824219 2.527344 2.019531 2.441406 C 2.28125 2.324219 2.621094 2.300781 3.867188 2.320312 C 4.511719 2.332031 5.078125 2.332031 5.125 2.320312 C 5.230469 2.300781 5.484375 2.050781 5.882812 1.574219 C 6.53125 0.804688 6.832031 0.515625 7.199219 0.320312 C 7.46875 0.179688 7.699219 0.128906 8.277344 0.0898438 C 8.558594 0.0703125 8.988281 0.0390625 9.230469 0.0195312 C 9.539062 -0.00390625 9.949219 0 10.566406 0.0234375 C 11.054688 0.0429688 11.847656 0.0664062 12.328125 0.078125 C 13.199219 0.09375 13.203125 0.09375 13.910156 0.238281 C 14.300781 0.316406 14.679688 0.382812 14.753906 0.382812 C 14.914062 0.382812 15.328125 0.519531 15.566406 0.648438 C 15.664062 0.699219 15.949219 0.914062 16.203125 1.125 C 17.394531 2.109375 18.539062 3.074219 18.894531 3.394531 L 19.285156 3.75 L 19.585938 3.75 C 19.945312 3.75 21.648438 3.910156 22.695312 4.039062 C 24.226562 4.234375 25.484375 4.585938 26.730469 5.171875 C 27.425781 5.5 27.890625 5.796875 28.335938 6.207031 C 28.65625 6.503906 28.769531 6.683594 28.796875 6.953125 C 28.8125 7.128906 28.84375 7.195312 29 7.445312 C 29.191406 7.746094 29.320312 8.09375 29.359375 8.417969 C 29.390625 8.675781 29.429688 8.75 29.519531 8.75 C 29.648438 8.75 29.675781 8.851562 29.652344 9.222656 C 29.617188 9.847656 29.546875 10.433594 29.492188 10.566406 C 29.417969 10.75 29.449219 10.863281 29.632812 11.089844 C 29.980469 11.519531 29.957031 11.480469 29.960938 11.71875 C 29.964844 11.910156 29.949219 11.960938 29.859375 12.117188 C 29.800781 12.21875 29.65625 12.398438 29.53125 12.515625 C 29.097656 12.941406 28.355469 13.199219 26.347656 13.617188 C 25.484375 13.800781 23.859375 14.027344 23.027344 14.082031 C 22.5 14.121094 21.617188 14.089844 20.710938 14 C 20.441406 13.972656 19.964844 13.933594 19.652344 13.914062 C 19 13.875 19.09375 13.84375 18.652344 14.242188 C 18.300781 14.554688 18.167969 14.636719 17.832031 14.765625 C 17.53125 14.878906 17.277344 14.902344 16.769531 14.867188 Z M 16.511719 14.082031 C 17.003906 13.902344 17.46875 13.277344 17.707031 12.476562 C 18 11.488281 17.921875 10.257812 17.515625 9.429688 C 17.265625 8.921875 16.828125 8.425781 16.46875 8.253906 C 15.691406 7.878906 14.765625 8.523438 14.414062 9.683594 C 14.289062 10.09375 14.253906 10.476562 14.273438 11.097656 C 14.304688 11.96875 14.390625 12.375 14.644531 12.863281 C 14.976562 13.492188 15.207031 13.742188 15.742188 14.039062 C 15.976562 14.167969 16.230469 14.183594 16.511719 14.082031 Z M 15.804688 13.957031 C 15.355469 13.699219 15.117188 13.449219 14.859375 12.976562 C 14.484375 12.292969 14.417969 12.058594 14.355469 11.207031 C 14.3125 10.597656 14.339844 10.199219 14.457031 9.757812 C 14.621094 9.152344 15.039062 8.605469 15.519531 8.367188 C 15.746094 8.257812 15.796875 8.246094 16.027344 8.246094 C 16.242188 8.246094 16.308594 8.257812 16.464844 8.335938 C 17.042969 8.628906 17.609375 9.535156 17.777344 10.4375 C 17.839844 10.789062 17.847656 11.5 17.789062 11.875 C 17.703125 12.4375 17.496094 13 17.234375 13.378906 C 16.945312 13.796875 16.597656 14.015625 16.203125 14.039062 C 15.988281 14.050781 15.949219 14.042969 15.804688 13.957031 Z M 23.078125 13.984375 C 24.902344 13.851562 27.941406 13.246094 28.832031 12.832031 C 29.59375 12.476562 29.933594 12.082031 29.871094 11.625 C 29.855469 11.5 29.816406 11.433594 29.691406 11.28125 C 29.359375 10.890625 29.363281 10.910156 29.347656 10.242188 C 29.335938 9.917969 29.320312 9.671875 29.308594 9.699219 C 29.296875 9.726562 29.265625 10.011719 29.234375 10.332031 C 29.207031 10.652344 29.175781 10.933594 29.167969 10.957031 C 29.160156 10.980469 29.117188 11.015625 29.070312 11.035156 C 28.988281 11.074219 28.988281 11.078125 29.007812 11.328125 L 29.03125 11.578125 L 28.710938 11.902344 C 28.449219 12.164062 28.347656 12.242188 28.148438 12.335938 C 27.800781 12.5 27.148438 12.671875 26.679688 12.722656 C 26.289062 12.761719 26.28125 12.761719 26.070312 12.683594 C 25.902344 12.621094 25.820312 12.5625 25.683594 12.414062 C 25.574219 12.296875 25.503906 12.191406 25.503906 12.148438 C 25.503906 12.007812 25.667969 11.117188 25.78125 10.664062 C 25.878906 10.253906 26.078125 9.707031 26.195312 9.515625 C 26.289062 9.363281 26.460938 9.285156 26.871094 9.207031 C 27.535156 9.085938 28.816406 8.78125 28.9375 8.71875 C 29.15625 8.601562 29.160156 8.621094 28.855469 7.945312 C 28.699219 7.605469 28.53125 7.265625 28.480469 7.1875 C 28.386719 7.058594 28.375 7.050781 28.269531 7.066406 C 28.207031 7.078125 27.425781 7.1875 26.535156 7.3125 C 25.644531 7.441406 24.898438 7.550781 24.875 7.558594 C 24.84375 7.570312 24.847656 7.59375 24.890625 7.660156 C 24.953125 7.753906 24.960938 7.996094 24.90625 8.136719 C 24.851562 8.28125 24.742188 8.324219 24.164062 8.445312 C 23.335938 8.613281 22.664062 8.648438 21.90625 8.558594 C 21.589844 8.523438 21.234375 8.484375 21.113281 8.472656 C 20.949219 8.453125 20.867188 8.425781 20.765625 8.355469 C 20.386719 8.082031 20.535156 8.113281 19.203125 8.03125 C 18.539062 7.992188 17.957031 7.964844 17.90625 7.972656 L 17.816406 7.984375 L 17.996094 8.226562 C 18.375 8.75 18.84375 9.71875 18.992188 10.289062 C 19.222656 11.175781 19.324219 11.976562 19.253906 12.339844 C 19.234375 12.433594 19.238281 12.488281 19.261719 12.507812 C 19.28125 12.523438 19.554688 12.542969 19.867188 12.554688 C 20.472656 12.570312 20.757812 12.625 21.25 12.816406 C 21.554688 12.933594 22.039062 12.984375 23.710938 13.070312 C 25.089844 13.140625 26.507812 13.046875 27.519531 12.820312 C 28.199219 12.667969 28.40625 12.59375 28.871094 12.332031 C 29.371094 12.050781 29.367188 12.050781 29.335938 11.707031 C 29.308594 11.441406 29.363281 11.425781 29.488281 11.664062 C 29.613281 11.902344 29.613281 12.117188 29.488281 12.25 C 29.300781 12.453125 28.601562 12.792969 28.058594 12.949219 C 27.460938 13.117188 26.269531 13.390625 25.949219 13.433594 C 25.449219 13.496094 23.5625 13.488281 22.929688 13.417969 C 22.316406 13.347656 21.820312 13.257812 21.46875 13.148438 C 20.625 12.886719 20.429688 12.835938 20.179688 12.808594 C 19.710938 12.75 19.238281 12.710938 19.226562 12.722656 C 19.195312 12.75 19.140625 13.761719 19.164062 13.777344 C 19.179688 13.785156 19.40625 13.804688 19.671875 13.820312 C 19.9375 13.835938 20.398438 13.875 20.695312 13.902344 C 21.734375 14.003906 22.449219 14.027344 23.078125 13.984375 Z M 22.851562 12.742188 C 22.613281 12.683594 22.015625 12.25 21.925781 12.070312 C 21.902344 12.023438 21.878906 11.882812 21.875 11.757812 C 21.871094 11.554688 21.878906 11.523438 21.953125 11.445312 C 22.027344 11.371094 22.078125 11.355469 22.332031 11.328125 C 22.671875 11.292969 22.816406 11.238281 23.109375 11.023438 C 23.335938 10.855469 23.378906 10.796875 23.378906 10.652344 C 23.378906 10.421875 23.402344 10.402344 23.761719 10.355469 C 23.945312 10.332031 24.253906 10.292969 24.449219 10.265625 C 24.859375 10.210938 24.917969 10.21875 24.871094 10.328125 C 24.835938 10.414062 24.519531 11.9375 24.519531 12.027344 C 24.519531 12.109375 24.71875 12.203125 25.039062 12.277344 C 25.210938 12.316406 25.347656 12.371094 25.417969 12.425781 C 25.53125 12.515625 25.628906 12.691406 25.585938 12.734375 C 25.554688 12.765625 22.972656 12.773438 22.851562 12.742188 Z M 19.828125 12.324219 C 19.734375 12.128906 19.59375 11.71875 19.609375 11.679688 C 19.625 11.636719 19.695312 11.628906 19.976562 11.628906 L 20.320312 11.628906 L 20.484375 11.886719 C 20.617188 12.09375 20.648438 12.167969 20.640625 12.253906 L 20.628906 12.363281 L 20.242188 12.375 C 19.898438 12.382812 19.851562 12.375 19.828125 12.324219 Z M 19.597656 11.414062 C 19.492188 11.253906 19.335938 10.820312 19.359375 10.753906 C 19.367188 10.726562 19.4375 10.714844 19.546875 10.714844 C 19.71875 10.714844 19.71875 10.714844 19.917969 10.933594 C 20.132812 11.175781 20.179688 11.265625 20.152344 11.382812 C 20.136719 11.441406 20.09375 11.476562 19.988281 11.511719 C 19.757812 11.59375 19.710938 11.582031 19.597656 11.414062 Z M 22.742188 10.285156 C 22.148438 10.222656 22.335938 10.117188 23.074219 10.101562 C 23.933594 10.082031 24.429688 10.15625 24.085938 10.253906 C 23.910156 10.300781 23.09375 10.320312 22.742188 10.285156 Z M 27.277344 8.316406 C 26.980469 8.132812 26.871094 7.757812 27.078125 7.621094 C 27.226562 7.519531 27.503906 7.703125 27.613281 7.972656 C 27.683594 8.140625 27.675781 8.21875 27.585938 8.3125 C 27.488281 8.410156 27.425781 8.414062 27.277344 8.316406 Z M 13.160156 11.992188 C 13.191406 11.859375 13.214844 11.746094 13.210938 11.742188 C 13.164062 11.699219 11.722656 11.25 10.914062 11.027344 C 8.941406 10.484375 7.371094 10.113281 6.375 9.949219 C 5.457031 9.800781 3.890625 9.613281 3.855469 9.648438 C 3.84375 9.660156 3.832031 9.761719 3.824219 9.878906 L 3.808594 10.085938 L 3.933594 10.105469 C 4 10.113281 4.398438 10.167969 4.816406 10.222656 C 5.238281 10.28125 5.9375 10.382812 6.375 10.453125 C 7.207031 10.589844 7.957031 10.789062 11.851562 11.902344 C 12.507812 12.089844 13.054688 12.242188 13.070312 12.238281 C 13.085938 12.234375 13.125 12.121094 13.160156 11.992188 Z M 26.617188 12.003906 C 26.878906 11.9375 27.019531 11.878906 27.285156 11.722656 L 27.617188 11.527344 L 27.769531 11.246094 C 27.921875 10.964844 28.109375 10.421875 28.109375 10.246094 C 28.109375 10.136719 28.207031 10.09375 26.894531 10.757812 C 25.964844 11.222656 25.816406 11.308594 25.789062 11.390625 C 25.753906 11.476562 25.664062 11.960938 25.664062 12.046875 C 25.664062 12.121094 26.242188 12.097656 26.617188 12.003906 Z M 13.226562 11.363281 C 13.261719 11.039062 13.253906 10.8125 13.207031 10.792969 C 13.1875 10.785156 12.035156 10.535156 10.652344 10.238281 C 8.515625 9.78125 8.007812 9.660156 7.273438 9.441406 C 6.417969 9.183594 4.214844 8.589844 4.121094 8.589844 C 4.070312 8.589844 4.046875 8.667969 3.957031 9.117188 C 3.925781 9.273438 3.910156 9.414062 3.921875 9.425781 C 3.953125 9.457031 4.210938 9.492188 4.847656 9.554688 C 5.144531 9.582031 5.566406 9.640625 5.785156 9.683594 C 6.003906 9.730469 6.46875 9.816406 6.816406 9.878906 C 8.007812 10.089844 11.339844 10.957031 12.582031 11.378906 C 12.871094 11.476562 13.128906 11.558594 13.15625 11.558594 C 13.195312 11.5625 13.210938 11.519531 13.226562 11.363281 Z M 13.242188 10.335938 C 13.246094 10.191406 13.269531 9.789062 13.296875 9.4375 C 13.339844 8.808594 13.34375 8.796875 13.496094 8.371094 C 13.644531 7.953125 13.660156 7.929688 13.90625 7.648438 C 14.15625 7.367188 14.527344 7.09375 14.789062 6.996094 C 14.839844 6.976562 15.125 6.949219 15.417969 6.941406 C 15.914062 6.925781 15.984375 6.929688 16.339844 7.007812 L 16.726562 7.089844 L 17.179688 7.417969 C 17.433594 7.597656 17.675781 7.757812 17.722656 7.777344 C 17.820312 7.808594 20.238281 7.96875 20.277344 7.945312 C 20.289062 7.933594 20.296875 7.898438 20.285156 7.859375 C 20.277344 7.820312 20.28125 7.6875 20.296875 7.5625 C 20.34375 7.195312 20.484375 6.964844 20.734375 6.847656 C 20.886719 6.777344 20.894531 6.757812 20.796875 6.691406 C 20.136719 6.257812 19.515625 5.90625 18.835938 5.59375 L 18.058594 5.230469 L 17.167969 5.027344 C 16.554688 4.886719 16.019531 4.789062 15.4375 4.710938 C 14.976562 4.648438 14.535156 4.582031 14.453125 4.570312 L 14.3125 4.542969 L 14.496094 4.539062 C 14.757812 4.53125 16.136719 4.65625 16.421875 4.714844 C 16.554688 4.738281 16.984375 4.832031 17.375 4.921875 L 18.089844 5.085938 L 18.886719 5.460938 C 19.496094 5.746094 19.839844 5.929688 20.367188 6.261719 L 21.050781 6.691406 L 21.902344 6.703125 C 22.734375 6.714844 22.769531 6.71875 23.15625 6.820312 C 23.640625 6.941406 23.636719 6.941406 24.203125 7.21875 L 24.664062 7.441406 L 26.46875 7.183594 C 27.460938 7.042969 28.28125 6.917969 28.292969 6.90625 C 28.300781 6.894531 28.285156 6.808594 28.253906 6.714844 C 28.148438 6.414062 28.011719 6.054688 27.988281 6.019531 C 27.914062 5.902344 27.21875 5.480469 26.71875 5.25 C 25.097656 4.492188 23.859375 4.210938 20.820312 3.90625 C 19.792969 3.804688 17.972656 3.804688 16.28125 3.910156 C 15.652344 3.945312 14.722656 4 14.214844 4.027344 C 13.710938 4.054688 12.953125 4.105469 12.53125 4.140625 C 11.835938 4.195312 11.75 4.207031 11.585938 4.289062 C 11.433594 4.363281 11.40625 4.390625 11.394531 4.480469 C 11.363281 4.683594 11.3125 6.789062 11.3125 7.738281 C 11.3125 8.269531 11.296875 9.039062 11.273438 9.445312 C 11.253906 9.855469 11.246094 10.199219 11.257812 10.210938 C 11.296875 10.25 13.0625 10.613281 13.167969 10.605469 C 13.226562 10.597656 13.234375 10.570312 13.242188 10.335938 Z M 11.917969 7.960938 C 11.839844 7.878906 11.804688 7.710938 11.832031 7.582031 C 11.890625 7.339844 12.042969 7.273438 12.167969 7.4375 C 12.226562 7.511719 12.234375 7.558594 12.226562 7.710938 C 12.207031 8 12.058594 8.121094 11.917969 7.960938 Z M 12.097656 7.894531 C 12.199219 7.765625 12.160156 7.445312 12.039062 7.445312 C 11.964844 7.445312 11.914062 7.539062 11.914062 7.6875 C 11.914062 7.890625 12.011719 8 12.097656 7.894531 Z M 2.894531 10.238281 C 3.015625 10.175781 3.234375 9.917969 3.324219 9.730469 C 3.425781 9.523438 3.554688 9.085938 3.609375 8.773438 C 3.828125 7.441406 3.511719 5.902344 2.941406 5.5625 C 2.492188 5.289062 2.050781 5.75 1.8125 6.738281 C 1.777344 6.878906 1.757812 7 1.761719 7.007812 C 1.769531 7.015625 1.800781 6.921875 1.832031 6.796875 C 1.945312 6.351562 2.101562 6 2.253906 5.835938 C 2.589844 5.480469 2.871094 5.496094 3.128906 5.882812 C 3.8125 6.90625 3.707031 9.398438 2.953125 10.082031 C 2.785156 10.234375 2.617188 10.253906 2.433594 10.140625 C 2.351562 10.09375 2.242188 9.988281 2.191406 9.910156 C 2.136719 9.832031 2.085938 9.773438 2.078125 9.78125 C 2.042969 9.8125 2.335938 10.160156 2.445312 10.222656 C 2.585938 10.296875 2.769531 10.304688 2.894531 10.238281 Z M 27.871094 10.089844 C 28.148438 10.015625 28.433594 9.941406 28.496094 9.925781 C 28.582031 9.902344 28.621094 9.871094 28.628906 9.820312 C 28.660156 9.660156 28.675781 8.980469 28.648438 8.964844 C 28.617188 8.945312 27.34375 9.234375 27.304688 9.273438 C 27.292969 9.285156 27.261719 9.492188 27.238281 9.734375 C 27.195312 10.1875 27.207031 10.273438 27.3125 10.242188 C 27.339844 10.234375 27.589844 10.164062 27.871094 10.089844 Z M 11.101562 10.148438 C 11.109375 10.125 11.132812 9.246094 11.152344 8.195312 C 11.183594 6.476562 11.21875 5.277344 11.261719 4.609375 L 11.277344 4.375 L 11.175781 4.355469 C 11.121094 4.347656 10.71875 4.335938 10.289062 4.328125 C 9.652344 4.316406 9.5 4.324219 9.5 4.359375 C 9.5 4.382812 9.53125 4.46875 9.570312 4.546875 C 9.65625 4.730469 9.621094 4.832031 9.429688 4.976562 C 9.300781 5.070312 9.28125 5.074219 9.011719 5.066406 C 8.722656 5.054688 8.574219 5.003906 8.535156 4.910156 C 8.503906 4.824219 8.515625 4.574219 8.546875 4.550781 C 8.566406 4.539062 8.582031 4.496094 8.582031 4.449219 C 8.582031 4.371094 8.574219 4.371094 8.300781 4.371094 C 7.527344 4.371094 6.769531 4.257812 5.984375 4.027344 L 5.59375 3.910156 L 5.5 3.976562 C 5.34375 4.09375 5.113281 4.378906 5.027344 4.566406 C 4.945312 4.742188 4.945312 4.757812 4.933594 5.59375 C 4.925781 6.507812 4.941406 6.644531 5.105469 7.238281 C 5.195312 7.554688 5.507812 8.25 5.648438 8.445312 C 5.847656 8.726562 6.011719 8.90625 6.09375 8.941406 C 6.144531 8.960938 6.632812 9.109375 7.183594 9.273438 C 7.933594 9.496094 8.535156 9.644531 9.597656 9.875 C 10.375 10.042969 11.027344 10.183594 11.050781 10.1875 C 11.074219 10.1875 11.097656 10.171875 11.101562 10.148438 Z M 5.648438 5.527344 C 5.546875 5.46875 5.40625 5.179688 5.40625 5.023438 C 5.40625 4.859375 5.5 4.796875 5.738281 4.796875 C 5.980469 4.796875 6.097656 4.847656 6.214844 5.003906 C 6.339844 5.171875 6.300781 5.5 6.148438 5.558594 C 6.054688 5.597656 5.738281 5.578125 5.648438 5.527344 Z M 6.136719 5.144531 C 6.136719 5.121094 6.097656 5.066406 6.054688 5.023438 C 5.984375 4.953125 5.941406 4.941406 5.761719 4.941406 C 5.582031 4.941406 5.546875 4.953125 5.539062 5.003906 C 5.519531 5.09375 5.574219 5.128906 5.777344 5.15625 C 6.070312 5.195312 6.136719 5.191406 6.136719 5.144531 Z M 2.015625 9.601562 C 1.988281 9.527344 1.960938 9.476562 1.953125 9.484375 C 1.9375 9.5 2.03125 9.730469 2.050781 9.730469 C 2.058594 9.730469 2.042969 9.671875 2.015625 9.601562 Z M 1.835938 9.054688 C 1.824219 9.042969 1.816406 9.0625 1.820312 9.097656 C 1.820312 9.136719 1.828125 9.144531 1.839844 9.117188 C 1.847656 9.09375 1.847656 9.066406 1.835938 9.054688 Z M 1.804688 8.921875 C 1.792969 8.914062 1.785156 8.933594 1.789062 8.964844 C 1.789062 9.003906 1.796875 9.011719 1.808594 8.988281 C 1.816406 8.964844 1.816406 8.933594 1.804688 8.921875 Z M 1.359375 8.554688 C 1.382812 8.382812 1.402344 8.03125 1.402344 7.769531 C 1.40625 6.78125 1.523438 5.757812 1.667969 5.527344 C 1.882812 5.171875 2.304688 5.011719 2.722656 5.125 C 3.183594 5.25 3.164062 5.238281 3.402344 5.515625 L 3.625 5.777344 L 3.839844 6.453125 C 4.039062 7.089844 4.054688 7.15625 4.070312 7.507812 L 4.085938 7.878906 L 4.292969 7.957031 C 4.523438 8.046875 5.273438 8.210938 5.304688 8.179688 C 5.3125 8.171875 5.28125 8.078125 5.234375 7.972656 C 5.039062 7.566406 4.863281 7.007812 4.796875 6.578125 C 4.734375 6.1875 4.730469 6.097656 4.761719 5.464844 C 4.789062 4.84375 4.796875 4.761719 4.871094 4.578125 C 4.957031 4.367188 5.265625 3.941406 5.375 3.878906 C 5.410156 3.859375 5.4375 3.832031 5.4375 3.816406 C 5.4375 3.753906 4.894531 3.457031 4.5625 3.339844 C 4.25 3.226562 4.1875 3.195312 4.160156 3.125 C 4.15625 3.113281 4.023438 3.128906 3.863281 3.164062 C 3.707031 3.195312 3.386719 3.230469 3.152344 3.242188 C 2.65625 3.269531 1.847656 3.398438 1.695312 3.476562 C 1.542969 3.558594 1.320312 3.878906 1.246094 4.136719 C 1.148438 4.460938 1.125 4.722656 1.078125 6.070312 C 1.03125 7.5625 1.03125 8.269531 1.085938 8.570312 C 1.171875 9.054688 1.285156 9.046875 1.359375 8.554688 Z M 29.453125 8.894531 C 29.464844 8.882812 29.449219 8.855469 29.417969 8.832031 C 29.390625 8.808594 29.351562 8.742188 29.332031 8.683594 L 29.296875 8.578125 L 29.242188 8.664062 C 29.179688 8.761719 29.195312 8.828125 29.292969 8.875 C 29.375 8.917969 29.425781 8.921875 29.453125 8.894531 Z M 1.773438 8.761719 C 1.761719 8.75 1.753906 8.769531 1.757812 8.804688 C 1.757812 8.839844 1.765625 8.847656 1.777344 8.824219 C 1.785156 8.800781 1.785156 8.769531 1.773438 8.761719 Z M 5.589844 8.695312 C 5.542969 8.644531 5.484375 8.558594 5.457031 8.5 C 5.429688 8.441406 5.390625 8.386719 5.371094 8.375 C 5.355469 8.363281 5.136719 8.3125 4.886719 8.261719 C 4.640625 8.207031 4.363281 8.132812 4.269531 8.09375 C 4.175781 8.054688 4.097656 8.027344 4.089844 8.035156 C 4.082031 8.042969 4.074219 8.121094 4.066406 8.210938 L 4.054688 8.375 L 4.628906 8.507812 C 4.941406 8.582031 5.292969 8.671875 5.40625 8.710938 C 5.675781 8.800781 5.6875 8.800781 5.589844 8.695312 Z M 24.09375 8.3125 C 24.414062 8.25 24.695312 8.191406 24.714844 8.179688 C 24.816406 8.113281 24.84375 7.769531 24.757812 7.671875 C 24.660156 7.558594 23.699219 7.089844 23.425781 7.019531 C 22.953125 6.902344 22.304688 6.824219 21.78125 6.824219 C 21.214844 6.824219 21.015625 6.851562 20.773438 6.976562 C 20.632812 7.050781 20.585938 7.097656 20.527344 7.214844 C 20.4375 7.402344 20.375 7.808594 20.421875 7.894531 C 20.441406 7.929688 20.554688 8.035156 20.671875 8.125 L 20.890625 8.292969 L 21.347656 8.34375 C 21.601562 8.371094 21.953125 8.410156 22.132812 8.433594 C 22.644531 8.496094 23.378906 8.449219 24.09375 8.3125 Z M 29.273438 8.351562 C 29.21875 7.972656 28.902344 7.296875 28.832031 7.421875 C 28.816406 7.453125 28.882812 7.640625 29.035156 7.980469 C 29.160156 8.261719 29.265625 8.488281 29.277344 8.488281 C 29.285156 8.488281 29.285156 8.425781 29.273438 8.351562 Z M 1.714844 7.648438 C 1.707031 7.507812 1.703125 7.621094 1.703125 7.902344 C 1.703125 8.179688 1.707031 8.292969 1.714844 8.15625 C 1.71875 8.015625 1.71875 7.789062 1.714844 7.648438 Z M 1.742188 7.191406 C 1.730469 7.179688 1.722656 7.199219 1.722656 7.234375 C 1.726562 7.273438 1.734375 7.28125 1.742188 7.253906 C 1.753906 7.230469 1.75 7.203125 1.742188 7.191406 Z M 28.75 7.015625 C 28.742188 6.902344 28.71875 6.769531 28.695312 6.71875 C 28.648438 6.628906 28.402344 6.398438 28.355469 6.398438 C 28.328125 6.398438 28.339844 6.492188 28.398438 6.730469 C 28.433594 6.878906 28.675781 7.253906 28.722656 7.238281 C 28.746094 7.230469 28.753906 7.152344 28.75 7.015625 Z M 9.277344 4.867188 C 9.316406 4.851562 9.378906 4.804688 9.414062 4.757812 C 9.472656 4.675781 9.472656 4.675781 9.390625 4.464844 C 9.34375 4.351562 9.230469 4.132812 9.136719 3.976562 C 9.046875 3.824219 8.941406 3.632812 8.90625 3.554688 C 8.828125 3.390625 8.578125 3.082031 8.480469 3.027344 C 8.445312 3.007812 8.328125 2.972656 8.21875 2.949219 C 7.882812 2.878906 7.496094 2.972656 7.320312 3.167969 C 7.160156 3.339844 7.101562 3.660156 7.207031 3.757812 C 7.238281 3.785156 7.363281 3.871094 7.484375 3.941406 C 7.699219 4.070312 7.714844 4.078125 7.988281 4.078125 C 8.273438 4.078125 8.582031 4.144531 8.636719 4.21875 C 8.652344 4.238281 8.683594 4.3125 8.707031 4.378906 C 8.738281 4.484375 8.738281 4.515625 8.695312 4.582031 C 8.640625 4.667969 8.632812 4.753906 8.664062 4.84375 C 8.679688 4.882812 8.734375 4.894531 8.941406 4.890625 C 9.082031 4.890625 9.234375 4.878906 9.277344 4.867188 Z M 7.597656 4.175781 C 7.597656 4.160156 7.519531 4.105469 7.429688 4.050781 C 7.066406 3.839844 6.976562 3.6875 7.054688 3.402344 C 7.105469 3.203125 7.34375 2.949219 7.539062 2.878906 C 7.742188 2.808594 8.179688 2.796875 8.390625 2.863281 C 8.582031 2.921875 8.863281 3.21875 9.085938 3.601562 C 9.222656 3.832031 9.261719 3.878906 9.28125 3.828125 C 9.292969 3.792969 9.316406 3.308594 9.339844 2.753906 C 9.359375 2.195312 9.382812 1.632812 9.394531 1.503906 C 9.40625 1.335938 9.398438 1.265625 9.371094 1.246094 C 9.347656 1.230469 8.980469 1.222656 8.550781 1.226562 C 7.917969 1.234375 7.714844 1.25 7.484375 1.300781 C 7.085938 1.390625 7.066406 1.402344 6.84375 1.65625 C 6.648438 1.875 6.644531 1.886719 6.550781 2.265625 C 6.410156 2.839844 6.222656 3.882812 6.253906 3.914062 C 6.296875 3.957031 6.925781 4.117188 7.230469 4.160156 C 7.609375 4.210938 7.597656 4.210938 7.597656 4.175781 Z M 11.011719 4.164062 C 11.039062 4.09375 9.984375 1.65625 9.878906 1.546875 L 9.789062 1.449219 L 9.757812 1.539062 C 9.703125 1.6875 9.667969 2.167969 9.640625 3.085938 L 9.621094 3.945312 L 9.742188 4.058594 L 9.859375 4.171875 L 10.246094 4.183594 C 10.457031 4.1875 10.710938 4.195312 10.8125 4.199219 C 10.941406 4.207031 11 4.195312 11.011719 4.164062 Z M 11.476562 4.078125 C 11.46875 4.050781 11.1875 3.386719 10.847656 2.601562 C 10.214844 1.132812 10.171875 1.003906 10.289062 0.894531 C 10.398438 0.792969 10.671875 0.699219 11.226562 0.574219 C 11.71875 0.464844 11.847656 0.449219 12.199219 0.449219 C 12.960938 0.449219 14.132812 0.40625 14.117188 0.378906 C 14.089844 0.332031 12.046875 0.347656 11.375 0.398438 C 10.625 0.457031 9.972656 0.570312 9.796875 0.675781 C 9.609375 0.792969 9.539062 0.90625 9.65625 0.90625 C 9.746094 0.90625 9.859375 1.011719 10.035156 1.257812 C 10.175781 1.453125 10.621094 2.453125 11.269531 4.039062 C 11.304688 4.128906 11.328125 4.144531 11.398438 4.136719 C 11.457031 4.128906 11.480469 4.109375 11.476562 4.078125 Z M 11.992188 3.882812 C 12.152344 3.699219 12.75 3.558594 13.683594 3.484375 C 14.21875 3.4375 14.546875 3.46875 14.765625 3.582031 C 14.875 3.636719 14.933594 3.640625 15.660156 3.613281 C 16.476562 3.582031 16.511719 3.574219 16.730469 3.410156 C 16.902344 3.28125 17.195312 3.226562 17.699219 3.226562 C 17.972656 3.226562 18.238281 3.246094 18.359375 3.277344 C 18.609375 3.332031 18.613281 3.332031 18.613281 3.292969 C 18.613281 3.265625 17.082031 1.972656 16.089844 1.160156 C 15.695312 0.839844 15.394531 0.660156 15.089844 0.5625 C 14.929688 0.515625 14.789062 0.511719 13.453125 0.546875 C 12.023438 0.582031 11.582031 0.613281 11.007812 0.730469 C 10.871094 0.757812 10.726562 0.800781 10.6875 0.824219 C 10.609375 0.878906 10.5 1.136719 10.527344 1.222656 C 10.535156 1.253906 10.761719 1.753906 11.03125 2.328125 C 11.300781 2.902344 11.578125 3.5 11.644531 3.652344 C 11.710938 3.804688 11.78125 3.949219 11.796875 3.96875 C 11.832031 4.015625 11.902344 3.984375 11.992188 3.882812 Z M 5.988281 3.757812 C 5.996094 3.726562 6.035156 3.53125 6.070312 3.324219 C 6.136719 2.953125 6.199219 2.652344 6.335938 2.050781 C 6.394531 1.789062 6.429688 1.707031 6.546875 1.546875 C 6.628906 1.441406 6.773438 1.28125 6.871094 1.195312 L 7.046875 1.035156 L 7.457031 0.980469 C 7.734375 0.941406 8.117188 0.925781 8.648438 0.921875 L 9.433594 0.921875 L 9.480469 0.808594 C 9.554688 0.613281 9.808594 0.484375 10.289062 0.390625 C 10.804688 0.292969 11.683594 0.21875 12.382812 0.21875 C 12.710938 0.21875 12.933594 0.207031 12.945312 0.1875 C 12.960938 0.164062 12.734375 0.152344 12.296875 0.152344 C 11.929688 0.152344 11.199219 0.136719 10.671875 0.117188 C 9.863281 0.0898438 9.566406 0.0898438 8.820312 0.136719 C 7.699219 0.203125 7.5625 0.222656 7.234375 0.390625 C 7.027344 0.5 6.910156 0.59375 6.617188 0.886719 C 6.417969 1.085938 6.125 1.402344 5.96875 1.589844 C 5.585938 2.042969 5.320312 2.3125 4.957031 2.613281 C 4.792969 2.75 4.59375 2.917969 4.519531 2.988281 L 4.375 3.117188 L 4.652344 3.222656 C 4.980469 3.34375 5.054688 3.378906 5.351562 3.578125 C 5.679688 3.792969 5.957031 3.871094 5.988281 3.757812 Z M 3.03125 3.175781 C 3.542969 3.148438 3.539062 3.152344 3.523438 2.808594 L 3.515625 2.589844 L 3.230469 2.589844 C 2.863281 2.59375 2.65625 2.648438 2.421875 2.804688 C 2.277344 2.898438 2.210938 2.96875 2.160156 3.082031 C 2.070312 3.273438 2.101562 3.296875 2.382812 3.242188 C 2.5 3.21875 2.792969 3.191406 3.03125 3.175781 Z M 2.082031 3.050781 C 2.15625 2.871094 2.417969 2.671875 2.714844 2.574219 C 2.882812 2.519531 3.5 2.476562 3.574219 2.515625 C 3.625 2.542969 3.628906 2.574219 3.609375 2.804688 C 3.59375 2.988281 3.597656 3.0625 3.625 3.0625 C 3.679688 3.0625 3.722656 2.914062 3.722656 2.71875 C 3.722656 2.613281 3.738281 2.53125 3.761719 2.515625 C 3.785156 2.503906 3.953125 2.476562 4.136719 2.457031 L 4.46875 2.421875 L 3.863281 2.394531 C 3.175781 2.363281 2.488281 2.386719 2.21875 2.453125 C 1.949219 2.519531 1.8125 2.667969 1.792969 2.914062 C 1.773438 3.15625 1.785156 3.183594 1.925781 3.167969 C 2.019531 3.15625 2.050781 3.132812 2.082031 3.050781 Z M 4.308594 2.972656 C 4.476562 2.921875 4.867188 2.625 4.867188 2.550781 C 4.867188 2.46875 3.867188 2.519531 3.816406 2.605469 C 3.769531 2.679688 3.777344 3.054688 3.824219 3.070312 C 3.875 3.085938 4.097656 3.042969 4.308594 2.972656 Z M 4.308594 2.972656 "/>
<path style=" stroke:none;fill-rule:nonzero;fill:rgb(9.411765%,9.411765%,10.588235%);fill-opacity:1;" d="M 16.710938 14.832031 C 16.179688 14.789062 15.90625 14.71875 15.519531 14.523438 C 14.816406 14.175781 14.214844 13.546875 13.953125 12.882812 L 13.863281 12.660156 L 13.644531 12.574219 C 13.523438 12.527344 13.355469 12.449219 13.277344 12.402344 L 13.128906 12.3125 L 13.179688 12.125 C 13.230469 11.925781 13.242188 11.824219 13.277344 11.21875 C 13.292969 10.945312 13.289062 10.816406 13.261719 10.785156 C 13.242188 10.761719 13.121094 10.714844 12.992188 10.683594 C 12.75 10.621094 12.792969 10.597656 13.066406 10.644531 C 13.148438 10.65625 13.226562 10.660156 13.242188 10.652344 C 13.257812 10.640625 13.28125 10.453125 13.292969 10.238281 C 13.363281 8.914062 13.371094 8.867188 13.535156 8.398438 C 13.683594 7.976562 13.695312 7.957031 13.941406 7.675781 C 14.199219 7.390625 14.546875 7.136719 14.832031 7.03125 C 15.03125 6.957031 15.9375 6.972656 16.332031 7.054688 C 16.511719 7.09375 16.691406 7.140625 16.726562 7.15625 C 16.761719 7.175781 16.988281 7.335938 17.234375 7.507812 C 17.476562 7.683594 17.703125 7.835938 17.734375 7.847656 C 17.765625 7.859375 17.78125 7.886719 17.769531 7.914062 C 17.757812 7.945312 17.832031 8.078125 17.953125 8.253906 C 18.359375 8.820312 18.777344 9.683594 18.933594 10.253906 C 19.164062 11.105469 19.195312 11.308594 19.199219 11.972656 L 19.207031 12.59375 L 19.761719 12.613281 C 20.367188 12.636719 20.640625 12.683594 21.113281 12.851562 C 21.480469 12.980469 21.707031 13.019531 22.328125 13.066406 C 23.492188 13.148438 24.265625 13.171875 25.078125 13.152344 C 26.320312 13.125 27.078125 13.027344 27.980469 12.785156 C 28.34375 12.6875 28.476562 12.632812 28.855469 12.425781 C 29.097656 12.289062 29.324219 12.148438 29.355469 12.113281 C 29.390625 12.070312 29.410156 11.992188 29.410156 11.902344 C 29.410156 11.824219 29.421875 11.757812 29.4375 11.757812 C 29.476562 11.757812 29.503906 11.875 29.503906 12.027344 C 29.507812 12.125 29.484375 12.164062 29.386719 12.246094 C 29.242188 12.371094 28.582031 12.707031 28.300781 12.800781 C 28.097656 12.871094 26.980469 13.152344 26.460938 13.265625 C 25.859375 13.398438 24.699219 13.453125 23.742188 13.394531 C 22.578125 13.324219 21.980469 13.230469 21.289062 13.011719 C 20.570312 12.785156 20.359375 12.738281 19.777344 12.6875 C 19.339844 12.648438 19.203125 12.644531 19.1875 12.675781 C 19.171875 12.695312 19.144531 12.96875 19.121094 13.285156 C 19.085938 13.785156 19.074219 13.859375 19.023438 13.886719 C 18.988281 13.90625 18.816406 14.050781 18.636719 14.210938 C 18.019531 14.773438 17.601562 14.90625 16.710938 14.832031 Z M 16.40625 14.199219 C 16.972656 14.042969 17.472656 13.457031 17.742188 12.628906 C 18.226562 11.148438 17.917969 9.492188 16.980469 8.535156 C 16.460938 8.003906 15.867188 7.917969 15.296875 8.289062 C 15.085938 8.425781 14.777344 8.753906 14.625 9 C 14.246094 9.628906 14.113281 10.417969 14.214844 11.492188 C 14.289062 12.3125 14.371094 12.574219 14.734375 13.179688 C 14.960938 13.554688 15.09375 13.703125 15.398438 13.917969 C 15.828125 14.226562 16.070312 14.292969 16.40625 14.199219 Z M 16.027344 13.789062 C 15.882812 13.71875 15.78125 13.636719 15.621094 13.449219 C 15.105469 12.855469 14.867188 12.425781 14.769531 11.910156 C 14.734375 11.730469 14.714844 11.683594 14.65625 11.660156 C 14.527344 11.609375 14.519531 11.378906 14.644531 11.34375 C 14.703125 11.328125 14.707031 11.300781 14.707031 11.015625 C 14.707031 10.789062 14.695312 10.6875 14.664062 10.648438 C 14.582031 10.554688 14.570312 10.433594 14.640625 10.363281 C 14.679688 10.324219 14.707031 10.246094 14.714844 10.140625 C 14.734375 9.921875 14.828125 9.574219 14.898438 9.472656 C 14.929688 9.425781 15.039062 9.246094 15.136719 9.074219 C 15.277344 8.820312 15.355469 8.722656 15.515625 8.589844 C 15.808594 8.351562 15.96875 8.289062 16.175781 8.328125 C 16.492188 8.390625 16.746094 8.570312 17.03125 8.9375 C 17.375 9.382812 17.617188 9.9375 17.710938 10.476562 C 17.773438 10.839844 17.769531 11.539062 17.707031 11.910156 C 17.597656 12.566406 17.421875 12.992188 17.328125 12.839844 C 17.320312 12.820312 17.222656 12.753906 17.117188 12.6875 C 16.707031 12.445312 16.519531 12.210938 16.519531 11.957031 C 16.519531 11.789062 16.625 11.542969 16.710938 11.515625 C 16.78125 11.488281 16.949219 11.558594 17.074219 11.667969 C 17.265625 11.828125 17.570312 12.023438 17.601562 12.003906 C 17.648438 11.972656 17.582031 11.902344 17.363281 11.75 C 17.136719 11.597656 16.964844 11.4375 16.964844 11.378906 C 16.964844 11.308594 17.164062 11.136719 17.398438 11.015625 C 17.804688 10.800781 17.625 10.785156 17.179688 10.996094 C 16.972656 11.097656 16.914062 11.109375 16.796875 11.089844 C 16.6875 11.074219 16.648438 11.050781 16.621094 10.988281 C 16.566406 10.867188 16.519531 10.894531 16.519531 11.046875 C 16.519531 11.125 16.496094 11.257812 16.472656 11.347656 C 16.445312 11.4375 16.421875 11.546875 16.421875 11.597656 C 16.421875 11.695312 16.335938 11.792969 16.242188 11.792969 C 16.179688 11.792969 16.074219 11.699219 16.074219 11.640625 C 16.074219 11.621094 16.023438 11.566406 15.957031 11.519531 C 15.847656 11.441406 15.835938 11.4375 15.75 11.484375 C 15.640625 11.542969 15.546875 11.503906 15.5 11.378906 C 15.460938 11.265625 15.460938 11.253906 15.546875 11.148438 C 15.644531 11.027344 15.679688 10.71875 15.617188 10.535156 C 15.574219 10.414062 15.566406 10.402344 15.464844 10.414062 C 15.367188 10.421875 15.339844 10.40625 15.226562 10.265625 C 15.15625 10.179688 15.074219 10.027344 15.042969 9.929688 C 14.96875 9.699219 14.960938 9.679688 14.929688 9.738281 C 14.910156 9.769531 14.941406 9.882812 15.011719 10.058594 C 15.152344 10.40625 15.140625 10.453125 14.914062 10.453125 C 14.671875 10.453125 14.675781 10.53125 14.917969 10.585938 C 15.015625 10.609375 15.152344 10.667969 15.21875 10.71875 C 15.34375 10.8125 15.34375 10.8125 15.34375 11.039062 C 15.34375 11.367188 15.285156 11.425781 14.945312 11.457031 C 14.65625 11.484375 14.613281 11.539062 14.859375 11.5625 C 15.078125 11.585938 15.109375 11.621094 15.0625 11.785156 C 15.042969 11.855469 15.003906 11.933594 14.980469 11.957031 C 14.921875 12.003906 14.914062 12.152344 14.972656 12.152344 C 14.992188 12.152344 15.054688 12.082031 15.105469 11.996094 C 15.21875 11.8125 15.332031 11.742188 15.449219 11.769531 C 15.648438 11.824219 15.683594 12.152344 15.53125 12.59375 C 15.441406 12.863281 15.429688 13 15.507812 12.949219 C 15.527344 12.9375 15.570312 12.863281 15.605469 12.78125 C 15.636719 12.703125 15.683594 12.644531 15.703125 12.652344 C 15.722656 12.65625 15.757812 12.734375 15.777344 12.824219 C 15.824219 13.042969 15.957031 13.371094 16.003906 13.386719 C 16.058594 13.40625 16.054688 13.351562 15.964844 13.015625 C 15.820312 12.488281 15.882812 12.152344 16.117188 12.152344 C 16.257812 12.152344 16.378906 12.25 16.402344 12.386719 C 16.457031 12.660156 16.699219 13.4375 16.734375 13.453125 C 16.757812 13.460938 16.800781 13.445312 16.828125 13.414062 C 16.875 13.367188 16.875 13.355469 16.808594 13.261719 C 16.648438 13.039062 16.535156 12.675781 16.597656 12.589844 C 16.632812 12.539062 16.667969 12.550781 16.988281 12.742188 C 17.230469 12.886719 17.34375 12.972656 17.34375 13.011719 C 17.34375 13.097656 17.140625 13.410156 16.96875 13.585938 C 16.804688 13.753906 16.527344 13.886719 16.332031 13.882812 C 16.269531 13.882812 16.132812 13.839844 16.027344 13.789062 Z M 16.308594 11.675781 C 16.375 11.609375 16.375 11.546875 16.304688 11.480469 C 16.257812 11.429688 16.25 11.429688 16.195312 11.496094 C 16.125 11.585938 16.125 11.609375 16.1875 11.675781 C 16.25 11.738281 16.25 11.738281 16.308594 11.675781 Z M 16.128906 11.417969 C 16.195312 11.363281 16.246094 11.34375 16.296875 11.359375 C 16.390625 11.382812 16.457031 11.296875 16.457031 11.136719 C 16.457031 11.03125 16.441406 11.003906 16.34375 10.945312 C 16.214844 10.867188 16.179688 10.753906 16.234375 10.613281 C 16.269531 10.527344 16.265625 10.503906 16.226562 10.460938 C 16.15625 10.394531 16.0625 10.429688 15.960938 10.566406 C 15.914062 10.628906 15.859375 10.679688 15.84375 10.679688 C 15.703125 10.679688 15.644531 10.949219 15.757812 11.054688 C 15.792969 11.089844 15.835938 11.175781 15.855469 11.25 C 15.890625 11.378906 15.964844 11.496094 16.011719 11.496094 C 16.027344 11.496094 16.078125 11.460938 16.128906 11.417969 Z M 15.742188 11.300781 C 15.742188 11.203125 15.730469 11.1875 15.660156 11.1875 C 15.570312 11.1875 15.535156 11.304688 15.601562 11.386719 C 15.667969 11.472656 15.742188 11.425781 15.742188 11.300781 Z M 16.449219 10.835938 C 16.503906 10.78125 16.496094 10.664062 16.4375 10.613281 C 16.398438 10.578125 16.378906 10.582031 16.320312 10.640625 C 16.261719 10.699219 16.257812 10.722656 16.289062 10.792969 C 16.328125 10.882812 16.390625 10.898438 16.449219 10.835938 Z M 15.835938 10.53125 C 15.898438 10.464844 15.898438 10.40625 15.835938 10.351562 C 15.773438 10.300781 15.691406 10.363281 15.691406 10.464844 C 15.691406 10.589844 15.75 10.617188 15.835938 10.53125 Z M 16.578125 10.347656 C 16.683594 10.226562 16.789062 10.148438 16.964844 10.066406 C 17.203125 9.953125 17.3125 9.878906 17.3125 9.820312 C 17.3125 9.769531 17.152344 9.828125 16.933594 9.964844 C 16.710938 10.097656 16.648438 10.113281 16.589844 10.054688 C 16.515625 9.976562 16.605469 9.515625 16.789062 9.039062 C 16.804688 9 16.796875 8.980469 16.765625 8.980469 C 16.707031 8.980469 16.515625 9.429688 16.441406 9.746094 C 16.371094 10.039062 16.28125 10.222656 16.203125 10.222656 C 15.980469 10.222656 15.914062 10.09375 15.914062 9.640625 C 15.914062 9.386719 15.933594 9.273438 16.011719 9.003906 C 16.066406 8.828125 16.105469 8.671875 16.09375 8.664062 C 16.058594 8.625 15.976562 8.828125 15.878906 9.207031 C 15.777344 9.59375 15.71875 9.695312 15.660156 9.597656 C 15.644531 9.574219 15.589844 9.445312 15.542969 9.316406 C 15.496094 9.183594 15.449219 9.078125 15.4375 9.078125 C 15.398438 9.078125 15.476562 9.421875 15.554688 9.601562 C 15.605469 9.714844 15.640625 9.867188 15.652344 10.019531 L 15.671875 10.253906 L 15.777344 10.253906 C 15.847656 10.253906 15.894531 10.277344 15.929688 10.324219 C 15.96875 10.382812 15.996094 10.390625 16.101562 10.378906 C 16.207031 10.363281 16.242188 10.375 16.300781 10.4375 C 16.339844 10.480469 16.382812 10.515625 16.402344 10.515625 C 16.417969 10.515625 16.496094 10.441406 16.578125 10.347656 Z M 26.0625 12.625 C 25.847656 12.535156 25.519531 12.214844 25.550781 12.128906 C 25.5625 12.101562 25.570312 12.0625 25.570312 12.042969 C 25.570312 12.023438 25.585938 12.039062 25.601562 12.078125 C 25.628906 12.148438 25.648438 12.152344 25.925781 12.152344 C 26.144531 12.152344 26.320312 12.125 26.605469 12.054688 C 26.933594 11.972656 27.039062 11.929688 27.324219 11.753906 L 27.660156 11.550781 L 27.816406 11.253906 C 27.984375 10.941406 28.222656 10.199219 28.1875 10.089844 C 28.171875 10.039062 28.199219 10.023438 28.359375 9.992188 C 28.660156 9.929688 28.65625 9.9375 28.679688 9.433594 C 28.703125 8.988281 28.691406 8.917969 28.589844 8.910156 C 28.5625 8.910156 28.621094 8.882812 28.726562 8.847656 C 28.984375 8.765625 29.121094 8.683594 29.175781 8.589844 C 29.203125 8.535156 29.21875 8.523438 29.21875 8.558594 C 29.21875 8.585938 29.203125 8.625 29.1875 8.644531 C 29.121094 8.710938 29.167969 8.859375 29.273438 8.921875 C 29.367188 8.980469 29.382812 8.980469 29.492188 8.933594 C 29.554688 8.90625 29.617188 8.882812 29.625 8.882812 C 29.644531 8.882812 29.617188 9.425781 29.570312 9.960938 C 29.535156 10.335938 29.457031 10.675781 29.414062 10.632812 C 29.40625 10.621094 29.394531 10.292969 29.386719 9.902344 C 29.375 9.234375 29.347656 8.980469 29.300781 9.175781 C 29.292969 9.222656 29.25 9.632812 29.207031 10.089844 C 29.132812 10.917969 29.132812 10.921875 29.046875 10.992188 C 28.976562 11.050781 28.957031 11.09375 28.953125 11.207031 C 28.953125 11.285156 28.960938 11.394531 28.976562 11.445312 C 29 11.535156 28.984375 11.558594 28.667969 11.871094 C 28.367188 12.167969 28.304688 12.210938 28.050781 12.320312 C 27.675781 12.480469 27.09375 12.628906 26.667969 12.671875 C 26.238281 12.714844 26.285156 12.71875 26.0625 12.625 Z M 24.457031 12.410156 C 24.066406 12.382812 23.800781 12.292969 23.679688 12.148438 C 23.535156 11.972656 23.5625 11.941406 23.851562 11.964844 C 23.996094 11.976562 24.113281 11.972656 24.125 11.957031 C 24.152344 11.90625 24.265625 11.234375 24.265625 11.109375 L 24.265625 11 L 23.894531 11.019531 C 23.6875 11.03125 23.492188 11.050781 23.460938 11.0625 C 23.40625 11.078125 23.402344 11.0625 23.425781 10.789062 C 23.4375 10.632812 23.457031 10.488281 23.472656 10.472656 C 23.488281 10.457031 23.730469 10.414062 24.019531 10.378906 C 24.304688 10.34375 24.597656 10.308594 24.671875 10.296875 C 24.75 10.289062 24.804688 10.292969 24.804688 10.3125 C 24.804688 10.328125 24.726562 10.722656 24.632812 11.191406 C 24.535156 11.65625 24.457031 12.046875 24.457031 12.0625 C 24.457031 12.125 24.726562 12.253906 24.988281 12.316406 C 25.152344 12.355469 25.28125 12.398438 25.28125 12.414062 C 25.28125 12.449219 24.957031 12.449219 24.457031 12.410156 Z M 19.863281 12.257812 C 19.851562 12.226562 19.804688 12.097656 19.753906 11.972656 C 19.703125 11.847656 19.664062 11.734375 19.664062 11.71875 C 19.664062 11.707031 19.804688 11.695312 19.976562 11.695312 L 20.292969 11.695312 L 20.4375 11.929688 C 20.519531 12.058594 20.582031 12.199219 20.582031 12.238281 C 20.582031 12.3125 20.578125 12.316406 20.234375 12.316406 C 19.929688 12.316406 19.878906 12.308594 19.863281 12.257812 Z M 20.542969 12.214844 C 20.550781 12.183594 20.492188 12.066406 20.417969 11.953125 L 20.28125 11.742188 L 20.03125 11.734375 C 19.894531 11.726562 19.765625 11.738281 19.75 11.753906 C 19.722656 11.78125 19.820312 12.074219 19.90625 12.210938 C 19.949219 12.28125 19.96875 12.285156 20.242188 12.277344 C 20.480469 12.269531 20.535156 12.257812 20.542969 12.214844 Z M 29.925781 11.710938 C 29.925781 11.457031 29.929688 11.453125 29.953125 11.621094 C 29.964844 11.71875 29.964844 11.835938 29.949219 11.882812 C 29.933594 11.945312 29.925781 11.894531 29.925781 11.710938 Z M 25.636719 11.679688 C 25.632812 11.644531 25.640625 11.625 25.652344 11.636719 C 25.664062 11.648438 25.664062 11.675781 25.652344 11.699219 C 25.644531 11.726562 25.636719 11.71875 25.636719 11.679688 Z M 19.683594 11.421875 C 19.597656 11.304688 19.535156 11.1875 19.539062 11.148438 C 19.539062 11.132812 19.5625 11.164062 19.589844 11.21875 C 19.65625 11.351562 19.730469 11.433594 19.804688 11.464844 C 19.855469 11.484375 19.855469 11.488281 19.8125 11.507812 C 19.777344 11.519531 19.734375 11.496094 19.683594 11.421875 Z M 25.679688 11.382812 C 25.738281 10.953125 25.933594 10.222656 26.085938 9.867188 C 26.292969 9.386719 26.324219 9.363281 26.859375 9.257812 C 27.082031 9.214844 27.304688 9.175781 27.347656 9.175781 L 27.425781 9.175781 L 27.347656 9.21875 C 27.257812 9.265625 27.238281 9.34375 27.203125 9.898438 C 27.179688 10.226562 27.183594 10.25 27.242188 10.269531 C 27.273438 10.277344 27.351562 10.273438 27.410156 10.253906 C 27.605469 10.199219 27.59375 10.226562 27.398438 10.289062 C 27.292969 10.324219 27.171875 10.34375 27.125 10.332031 C 27.011719 10.308594 26.503906 10.476562 26.183594 10.640625 C 25.894531 10.792969 25.871094 10.824219 25.757812 11.253906 C 25.675781 11.5625 25.648438 11.609375 25.679688 11.382812 Z M 20.011719 11.382812 C 20.0625 11.320312 20.109375 11.320312 20.085938 11.382812 C 20.078125 11.410156 20.046875 11.433594 20.019531 11.433594 C 19.980469 11.433594 19.980469 11.421875 20.011719 11.382812 Z M 20.042969 11.25 C 20.042969 11.234375 19.964844 11.128906 19.867188 11.015625 C 19.726562 10.851562 19.671875 10.8125 19.597656 10.8125 C 19.539062 10.8125 19.496094 10.832031 19.484375 10.863281 C 19.46875 10.90625 19.457031 10.90625 19.4375 10.871094 C 19.386719 10.792969 19.40625 10.777344 19.5625 10.777344 C 19.707031 10.777344 19.722656 10.785156 19.855469 10.949219 C 20.066406 11.207031 20.085938 11.234375 20.0625 11.257812 C 20.054688 11.269531 20.042969 11.265625 20.042969 11.25 Z M 3.023438 10.777344 C 2.679688 10.761719 2.566406 10.742188 2.441406 10.6875 C 2.300781 10.621094 2.015625 10.402344 1.921875 10.289062 C 1.816406 10.164062 1.632812 9.703125 1.578125 9.445312 C 1.566406 9.375 1.507812 9.296875 1.402344 9.203125 C 1.316406 9.128906 1.246094 9.054688 1.246094 9.039062 C 1.246094 9.023438 1.273438 8.96875 1.308594 8.921875 C 1.386719 8.808594 1.425781 8.4375 1.46875 7.328125 C 1.515625 6.011719 1.597656 5.605469 1.871094 5.34375 C 2.070312 5.152344 2.460938 5.101562 2.898438 5.21875 C 3.125 5.28125 3.144531 5.292969 3.347656 5.523438 L 3.5625 5.761719 L 3.773438 6.414062 C 3.964844 7.011719 3.988281 7.105469 4.023438 7.507812 C 4.046875 7.761719 4.050781 7.984375 4.035156 8.027344 C 4 8.128906 4 8.382812 4.039062 8.40625 C 4.054688 8.417969 4.292969 8.480469 4.570312 8.542969 C 4.847656 8.605469 5.21875 8.703125 5.398438 8.757812 C 5.578125 8.8125 5.734375 8.851562 5.746094 8.839844 C 5.757812 8.824219 5.722656 8.769531 5.671875 8.710938 C 5.5625 8.589844 5.375 8.304688 5.375 8.261719 C 5.375 8.164062 5.449219 8.226562 5.597656 8.449219 C 5.691406 8.589844 5.832031 8.773438 5.910156 8.859375 C 5.984375 8.941406 6.03125 9.011719 6.003906 9.011719 C 5.980469 9.011719 5.535156 8.898438 5.015625 8.761719 C 4.285156 8.566406 4.0625 8.519531 4.042969 8.550781 C 3.996094 8.628906 3.84375 9.445312 3.871094 9.46875 C 3.898438 9.496094 4.476562 9.574219 5.121094 9.636719 C 5.472656 9.667969 6.1875 9.808594 6.226562 9.847656 C 6.238281 9.859375 6.195312 9.859375 6.136719 9.851562 C 5.390625 9.726562 3.886719 9.574219 3.835938 9.617188 C 3.8125 9.636719 3.785156 9.75 3.773438 9.871094 C 3.753906 10.132812 3.761719 10.140625 4.082031 10.175781 C 4.199219 10.1875 4.300781 10.210938 4.3125 10.226562 C 4.34375 10.277344 4.226562 10.484375 4.113281 10.578125 C 3.90625 10.753906 3.640625 10.804688 3.023438 10.777344 Z M 3 10.269531 C 3.285156 10.078125 3.527344 9.589844 3.664062 8.945312 C 3.761719 8.484375 3.769531 7.324219 3.679688 6.886719 C 3.5625 6.308594 3.398438 5.90625 3.171875 5.65625 C 2.859375 5.300781 2.519531 5.304688 2.203125 5.660156 C 1.433594 6.523438 1.410156 9.101562 2.164062 10.085938 C 2.386719 10.378906 2.730469 10.453125 3 10.269531 Z M 2.574219 9.914062 C 2.300781 9.722656 2.054688 9.210938 1.976562 8.664062 C 1.910156 8.203125 1.945312 7.320312 2.042969 6.871094 C 2.136719 6.453125 2.613281 5.679688 2.777344 5.679688 C 2.875 5.679688 3.082031 5.921875 3.203125 6.183594 C 3.425781 6.667969 3.515625 7.234375 3.492188 8.042969 C 3.46875 8.917969 3.308594 9.542969 3.019531 9.878906 C 2.898438 10.023438 2.746094 10.035156 2.574219 9.914062 Z M 2.75 9.632812 C 2.746094 9.589844 2.730469 9.449219 2.71875 9.324219 C 2.703125 9.125 2.707031 9.074219 2.765625 8.953125 C 2.804688 8.878906 2.847656 8.816406 2.863281 8.816406 C 2.894531 8.816406 2.929688 8.9375 2.976562 9.175781 C 3.015625 9.382812 3.054688 9.402344 3.054688 9.21875 C 3.054688 9.035156 3.078125 9.015625 3.195312 9.097656 C 3.3125 9.171875 3.320312 9.101562 3.210938 8.992188 C 3.097656 8.882812 2.992188 8.6875 2.992188 8.589844 C 2.992188 8.496094 2.957031 8.503906 2.847656 8.625 C 2.753906 8.722656 2.710938 8.730469 2.566406 8.667969 C 2.519531 8.648438 2.507812 8.652344 2.523438 8.6875 C 2.582031 8.851562 2.578125 8.875 2.46875 9.015625 C 2.351562 9.171875 2.339844 9.21875 2.390625 9.359375 C 2.421875 9.441406 2.425781 9.441406 2.480469 9.394531 C 2.582031 9.300781 2.609375 9.328125 2.609375 9.515625 C 2.609375 9.703125 2.628906 9.742188 2.703125 9.722656 C 2.734375 9.71875 2.75 9.683594 2.75 9.632812 Z M 3.089844 9.480469 C 3.0625 9.433594 3.058594 9.429688 3.058594 9.472656 C 3.054688 9.527344 3.089844 9.578125 3.113281 9.554688 C 3.117188 9.546875 3.109375 9.515625 3.089844 9.480469 Z M 2.339844 8.503906 C 2.367188 8.425781 2.363281 8.417969 2.285156 8.429688 C 2.195312 8.445312 2.167969 8.554688 2.257812 8.554688 C 2.289062 8.554688 2.328125 8.53125 2.339844 8.503906 Z M 2.699219 8.515625 C 2.75 8.464844 2.75 8.386719 2.695312 8.308594 C 2.65625 8.257812 2.640625 8.253906 2.597656 8.289062 C 2.539062 8.34375 2.53125 8.460938 2.585938 8.515625 C 2.632812 8.566406 2.652344 8.566406 2.699219 8.515625 Z M 2.945312 8.410156 C 2.960938 8.355469 2.941406 8.3125 2.882812 8.25 C 2.742188 8.105469 2.789062 7.914062 2.984375 7.851562 C 3.046875 7.835938 3.058594 7.8125 3.050781 7.710938 C 3.042969 7.605469 3.027344 7.589844 2.945312 7.582031 C 2.828125 7.566406 2.738281 7.488281 2.738281 7.398438 C 2.738281 7.304688 2.691406 7.234375 2.644531 7.261719 C 2.625 7.273438 2.585938 7.332031 2.558594 7.386719 C 2.511719 7.484375 2.511719 7.492188 2.5625 7.523438 C 2.683594 7.597656 2.707031 7.628906 2.722656 7.722656 C 2.753906 7.871094 2.65625 7.980469 2.472656 7.996094 C 2.460938 8 2.453125 8.046875 2.457031 8.105469 C 2.46875 8.207031 2.472656 8.210938 2.582031 8.203125 C 2.734375 8.1875 2.800781 8.257812 2.800781 8.429688 C 2.800781 8.546875 2.808594 8.554688 2.863281 8.523438 C 2.898438 8.503906 2.9375 8.453125 2.945312 8.410156 Z M 3.402344 8.351562 C 3.402344 8.277344 3.210938 8.085938 3.175781 8.121094 C 3.15625 8.144531 3.179688 8.195312 3.246094 8.273438 C 3.351562 8.394531 3.40625 8.421875 3.402344 8.351562 Z M 3.050781 8.085938 C 3.0625 7.976562 3.023438 7.921875 2.953125 7.953125 C 2.890625 7.976562 2.863281 8.074219 2.902344 8.144531 C 2.949219 8.226562 3.039062 8.191406 3.050781 8.085938 Z M 3.316406 7.765625 C 3.429688 7.65625 3.429688 7.605469 3.3125 7.605469 C 3.261719 7.605469 3.195312 7.597656 3.167969 7.585938 C 3.128906 7.570312 3.121094 7.59375 3.121094 7.714844 C 3.121094 7.796875 3.128906 7.890625 3.140625 7.921875 C 3.160156 7.976562 3.164062 7.976562 3.195312 7.917969 C 3.214844 7.882812 3.269531 7.816406 3.316406 7.765625 Z M 2.363281 7.828125 C 2.339844 7.730469 2.1875 7.523438 2.171875 7.570312 C 2.160156 7.617188 2.316406 7.902344 2.355469 7.902344 C 2.371094 7.902344 2.375 7.867188 2.363281 7.828125 Z M 2.609375 7.855469 C 2.667969 7.78125 2.636719 7.65625 2.558594 7.648438 C 2.507812 7.640625 2.488281 7.65625 2.476562 7.726562 C 2.449219 7.871094 2.535156 7.949219 2.609375 7.855469 Z M 2.96875 7.4375 C 2.992188 7.371094 2.9375 7.246094 2.882812 7.246094 C 2.816406 7.246094 2.792969 7.304688 2.816406 7.398438 C 2.835938 7.480469 2.941406 7.507812 2.96875 7.4375 Z M 2.554688 7.289062 C 2.613281 7.183594 2.894531 7.09375 2.992188 7.148438 C 3.054688 7.183594 3.085938 7.164062 3.085938 7.085938 C 3.089844 7.058594 3.136719 7 3.199219 6.960938 C 3.371094 6.847656 3.335938 6.734375 3.128906 6.753906 C 3.027344 6.761719 3.023438 6.761719 3.019531 6.621094 L 3.015625 6.480469 L 2.972656 6.675781 C 2.921875 6.890625 2.863281 6.972656 2.789062 6.941406 C 2.753906 6.929688 2.738281 6.878906 2.738281 6.765625 C 2.738281 6.679688 2.730469 6.554688 2.71875 6.488281 C 2.703125 6.386719 2.6875 6.367188 2.640625 6.382812 C 2.597656 6.398438 2.578125 6.378906 2.5625 6.316406 C 2.550781 6.273438 2.519531 6.234375 2.496094 6.234375 C 2.441406 6.234375 2.441406 6.21875 2.503906 6.429688 C 2.589844 6.726562 2.636719 7.039062 2.605469 7.097656 C 2.585938 7.128906 2.535156 7.148438 2.46875 7.148438 C 2.351562 7.148438 2.351562 7.152344 2.292969 6.847656 C 2.273438 6.742188 2.246094 6.660156 2.226562 6.660156 C 2.210938 6.660156 2.199219 6.746094 2.199219 6.851562 C 2.199219 7.03125 2.207031 7.058594 2.332031 7.210938 C 2.40625 7.300781 2.476562 7.378906 2.484375 7.378906 C 2.496094 7.378906 2.527344 7.339844 2.554688 7.289062 Z M 3.121094 6.347656 C 3.121094 6.320312 3.105469 6.304688 3.085938 6.316406 C 3.046875 6.34375 3.046875 6.398438 3.085938 6.398438 C 3.105469 6.398438 3.121094 6.375 3.121094 6.347656 Z M 11.125 10.253906 C 11.140625 10.207031 11.195312 10.199219 11.207031 10.246094 C 11.214844 10.269531 11.199219 10.289062 11.167969 10.289062 C 11.140625 10.289062 11.121094 10.273438 11.125 10.253906 Z M 11.191406 9.078125 C 11.191406 8.765625 11.199219 8.441406 11.214844 8.359375 C 11.246094 8.167969 11.25 9.136719 11.21875 9.4375 C 11.199219 9.59375 11.195312 9.503906 11.191406 9.078125 Z M 27.449219 9.15625 C 27.460938 9.144531 27.488281 9.144531 27.511719 9.15625 C 27.535156 9.164062 27.53125 9.171875 27.492188 9.175781 C 27.457031 9.175781 27.441406 9.167969 27.449219 9.15625 Z M 27.632812 9.109375 C 27.675781 9.097656 27.742188 9.085938 27.777344 9.085938 C 27.824219 9.085938 27.824219 9.089844 27.757812 9.109375 C 27.714844 9.125 27.652344 9.136719 27.617188 9.136719 C 27.566406 9.136719 27.570312 9.132812 27.632812 9.109375 Z M 27.863281 9.058594 C 27.875 9.046875 27.902344 9.046875 27.925781 9.054688 C 27.949219 9.066406 27.941406 9.074219 27.90625 9.074219 C 27.871094 9.078125 27.851562 9.070312 27.863281 9.058594 Z M 28.003906 9.023438 C 28.027344 9.015625 28.0625 9.015625 28.085938 9.023438 C 28.105469 9.035156 28.089844 9.039062 28.046875 9.039062 C 28 9.039062 27.984375 9.035156 28.003906 9.023438 Z M 28.148438 8.992188 C 28.160156 8.980469 28.1875 8.980469 28.210938 8.992188 C 28.234375 9 28.226562 9.007812 28.191406 9.011719 C 28.15625 9.011719 28.140625 9.003906 28.148438 8.992188 Z M 28.277344 8.960938 C 28.285156 8.949219 28.3125 8.949219 28.335938 8.957031 C 28.363281 8.96875 28.355469 8.976562 28.316406 8.976562 C 28.285156 8.980469 28.265625 8.972656 28.277344 8.960938 Z M 28.433594 8.929688 C 28.445312 8.917969 28.472656 8.914062 28.496094 8.925781 C 28.519531 8.9375 28.515625 8.945312 28.476562 8.945312 C 28.441406 8.945312 28.425781 8.9375 28.433594 8.929688 Z M 21.574219 8.476562 C 21.21875 8.433594 20.914062 8.386719 20.898438 8.367188 C 20.867188 8.335938 20.882812 8.339844 21.886719 8.457031 C 22.410156 8.519531 22.53125 8.523438 23.027344 8.492188 C 23.417969 8.46875 23.75 8.425781 24.136719 8.347656 C 24.761719 8.222656 24.808594 8.195312 24.855469 7.929688 C 24.871094 7.832031 24.882812 7.808594 24.894531 7.859375 C 24.914062 7.972656 24.839844 8.191406 24.765625 8.242188 C 24.726562 8.265625 24.429688 8.339844 24.105469 8.40625 C 23.582031 8.507812 23.449219 8.523438 22.867188 8.535156 C 22.328125 8.550781 22.109375 8.539062 21.574219 8.476562 Z M 28.847656 7.8125 C 28.691406 7.472656 28.515625 7.148438 28.460938 7.089844 C 28.367188 6.984375 28.332031 6.886719 28.390625 6.886719 C 28.40625 6.886719 28.46875 6.96875 28.535156 7.070312 C 28.664062 7.273438 28.71875 7.308594 28.796875 7.242188 C 28.84375 7.203125 28.847656 7.207031 28.828125 7.28125 C 28.8125 7.324219 28.796875 7.394531 28.785156 7.433594 C 28.777344 7.476562 28.84375 7.671875 28.964844 7.953125 C 29.070312 8.199219 29.152344 8.40625 29.148438 8.414062 C 29.140625 8.417969 29.007812 8.148438 28.847656 7.8125 Z M 20.332031 8.035156 C 20.289062 8.007812 20.292969 8 20.339844 7.980469 C 20.375 7.964844 20.417969 7.976562 20.449219 8.011719 C 20.496094 8.0625 20.496094 8.066406 20.441406 8.0625 C 20.40625 8.0625 20.355469 8.050781 20.332031 8.035156 Z M 27.070312 8.007812 C 27.042969 7.941406 27.070312 7.933594 27.191406 7.96875 C 27.285156 7.996094 27.308594 7.992188 27.351562 7.933594 C 27.382812 7.898438 27.414062 7.851562 27.421875 7.828125 C 27.433594 7.796875 27.445312 7.796875 27.46875 7.835938 C 27.492188 7.867188 27.484375 7.90625 27.4375 7.964844 C 27.386719 8.03125 27.34375 8.050781 27.230469 8.050781 C 27.136719 8.050781 27.082031 8.035156 27.070312 8.007812 Z M 18.035156 7.878906 C 18.058594 7.871094 18.09375 7.871094 18.113281 7.878906 C 18.136719 7.890625 18.117188 7.894531 18.074219 7.894531 C 18.03125 7.894531 18.011719 7.890625 18.035156 7.878906 Z M 24.519531 7.472656 C 24.441406 7.417969 24.40625 7.382812 24.441406 7.394531 C 24.476562 7.410156 24.554688 7.4375 24.613281 7.460938 C 24.675781 7.484375 24.730469 7.519531 24.738281 7.539062 C 24.757812 7.601562 24.667969 7.574219 24.519531 7.472656 Z M 20.359375 7.382812 C 20.359375 7.363281 20.375 7.339844 20.394531 7.328125 C 20.410156 7.316406 20.425781 7.324219 20.425781 7.34375 C 20.425781 7.359375 20.410156 7.382812 20.394531 7.394531 C 20.375 7.40625 20.359375 7.398438 20.359375 7.382812 Z M 4.953125 7.082031 C 4.855469 6.808594 4.800781 6.355469 4.804688 5.816406 C 4.816406 4.808594 4.847656 4.761719 4.875 5.71875 C 4.894531 6.476562 4.90625 6.667969 4.964844 6.890625 C 5.039062 7.183594 5.03125 7.304688 4.953125 7.082031 Z M 22.746094 6.851562 C 22.515625 6.804688 22.519531 6.789062 22.761719 6.800781 C 23 6.8125 23.214844 6.890625 22.996094 6.882812 C 22.9375 6.882812 22.820312 6.867188 22.746094 6.851562 Z M 20.964844 6.773438 C 20.964844 6.71875 20.96875 6.714844 21.042969 6.746094 C 21.113281 6.773438 21.105469 6.824219 21.027344 6.824219 C 20.992188 6.824219 20.964844 6.800781 20.964844 6.773438 Z M 28.164062 6.308594 C 28.101562 6.152344 28.058594 6.015625 28.066406 6.007812 C 28.101562 5.96875 28.230469 6.152344 28.230469 6.246094 C 28.230469 6.300781 28.246094 6.398438 28.265625 6.460938 C 28.328125 6.675781 28.273438 6.59375 28.164062 6.308594 Z M 5.730469 5.511719 C 5.621094 5.476562 5.550781 5.390625 5.515625 5.238281 C 5.496094 5.164062 5.5 5.148438 5.539062 5.164062 C 5.605469 5.191406 6.101562 5.238281 6.191406 5.226562 C 6.273438 5.21875 6.28125 5.269531 6.226562 5.394531 C 6.164062 5.535156 5.96875 5.582031 5.730469 5.511719 Z M 8.746094 4.996094 C 8.6875 4.960938 8.847656 4.925781 9.078125 4.925781 C 9.316406 4.925781 9.453125 4.863281 9.503906 4.726562 C 9.542969 4.621094 9.542969 4.617188 9.558594 4.699219 C 9.570312 4.761719 9.542969 4.804688 9.433594 4.902344 C 9.296875 5.023438 9.289062 5.023438 9.042969 5.023438 C 8.902344 5.023438 8.769531 5.011719 8.746094 4.996094 Z M 11.28125 4.847656 C 11.28125 4.8125 11.289062 4.792969 11.300781 4.804688 C 11.308594 4.816406 11.3125 4.84375 11.300781 4.867188 C 11.292969 4.894531 11.285156 4.886719 11.28125 4.847656 Z M 7.597656 4.285156 C 7.078125 4.246094 6.546875 4.144531 5.996094 3.980469 C 5.601562 3.859375 5.5625 3.859375 5.449219 3.953125 C 5.246094 4.121094 5.242188 4.125 5.265625 4.066406 C 5.273438 4.039062 5.332031 3.976562 5.390625 3.929688 C 5.453125 3.882812 5.5 3.824219 5.5 3.800781 C 5.5 3.765625 5.550781 3.769531 5.738281 3.824219 C 5.871094 3.859375 5.984375 3.882812 5.996094 3.871094 C 6.007812 3.859375 6.058594 3.640625 6.109375 3.382812 C 6.226562 2.777344 6.453125 1.785156 6.484375 1.722656 C 6.539062 1.621094 6.757812 1.367188 6.90625 1.230469 L 7.058594 1.09375 L 7.605469 1.03125 C 8.003906 0.984375 8.328125 0.972656 8.789062 0.976562 C 9.273438 0.984375 9.441406 0.976562 9.476562 0.945312 C 9.511719 0.914062 9.535156 0.914062 9.546875 0.9375 C 9.558594 0.957031 9.601562 0.972656 9.640625 0.972656 C 9.710938 0.972656 9.855469 1.109375 10.03125 1.347656 C 10.085938 1.417969 10.375 2.066406 10.675781 2.785156 C 10.980469 3.503906 11.25 4.121094 11.273438 4.152344 C 11.3125 4.195312 11.347656 4.203125 11.421875 4.1875 C 11.472656 4.175781 11.53125 4.15625 11.542969 4.144531 C 11.558594 4.128906 11.285156 3.457031 10.933594 2.652344 C 10.359375 1.324219 10.28125 1.113281 10.292969 0.980469 C 10.292969 0.945312 10.574219 0.773438 10.625 0.773438 C 10.636719 0.773438 10.605469 0.851562 10.566406 0.945312 C 10.476562 1.140625 10.464844 1.253906 10.53125 1.347656 C 10.597656 1.445312 11.722656 3.882812 11.722656 3.925781 C 11.722656 3.976562 11.789062 4.042969 11.835938 4.042969 C 11.855469 4.042969 11.9375 3.996094 12.011719 3.933594 C 12.296875 3.710938 12.71875 3.613281 13.785156 3.519531 C 14.222656 3.484375 14.507812 3.515625 14.722656 3.628906 C 14.839844 3.6875 14.890625 3.691406 15.4375 3.671875 C 16.472656 3.632812 16.53125 3.625 16.683594 3.503906 C 16.902344 3.332031 17.089844 3.292969 17.691406 3.292969 C 18.078125 3.292969 18.285156 3.308594 18.476562 3.351562 L 18.734375 3.410156 L 18.703125 3.335938 C 18.671875 3.265625 18.273438 2.921875 16.882812 1.769531 C 15.347656 0.492188 15.332031 0.484375 14.425781 0.476562 C 13.917969 0.46875 13.910156 0.46875 14.183594 0.441406 C 14.636719 0.398438 14.855469 0.410156 15.121094 0.5 C 15.59375 0.65625 15.644531 0.691406 17.519531 2.257812 C 18.664062 3.214844 19.230469 3.71875 19.195312 3.75 C 19.183594 3.765625 18.605469 3.78125 17.917969 3.792969 C 17.226562 3.800781 16.332031 3.832031 15.933594 3.859375 C 15.53125 3.886719 14.773438 3.933594 14.25 3.960938 C 13.347656 4.007812 11.976562 4.121094 11.777344 4.164062 C 11.726562 4.171875 11.613281 4.214844 11.523438 4.253906 C 11.359375 4.324219 11.351562 4.324219 10.410156 4.296875 C 9.660156 4.269531 9.457031 4.273438 9.4375 4.304688 C 9.40625 4.355469 9.238281 4.09375 9.015625 3.652344 C 8.847656 3.316406 8.914062 3.363281 9.125 3.726562 C 9.21875 3.890625 9.261719 3.941406 9.289062 3.917969 C 9.355469 3.847656 9.460938 1.285156 9.402344 1.210938 C 9.34375 1.136719 7.824219 1.183594 7.421875 1.273438 L 7.105469 1.339844 L 6.863281 1.589844 C 6.570312 1.886719 6.578125 1.859375 6.351562 3.039062 C 6.207031 3.777344 6.191406 3.886719 6.230469 3.925781 C 6.296875 3.992188 6.941406 4.160156 7.324219 4.207031 C 7.609375 4.246094 7.640625 4.246094 7.675781 4.195312 C 7.726562 4.125 7.96875 4.125 8.042969 4.191406 C 8.089844 4.238281 8.105469 4.238281 8.1875 4.1875 C 8.269531 4.140625 8.296875 4.136719 8.4375 4.179688 C 8.523438 4.203125 8.601562 4.246094 8.605469 4.273438 C 8.617188 4.335938 8.285156 4.339844 7.597656 4.285156 Z M 11.035156 4.199219 C 11.085938 4.160156 11.039062 4.042969 10.535156 2.867188 C 10.222656 2.144531 9.945312 1.542969 9.902344 1.5 C 9.722656 1.316406 9.671875 1.496094 9.628906 2.433594 C 9.613281 2.804688 9.597656 3.304688 9.597656 3.542969 L 9.597656 3.972656 L 9.730469 4.089844 L 9.859375 4.207031 L 10.230469 4.214844 C 10.429688 4.222656 10.683594 4.230469 10.789062 4.234375 C 10.902344 4.238281 11.003906 4.222656 11.035156 4.199219 Z M 9.628906 4.140625 C 9.628906 4.121094 9.609375 4.082031 9.582031 4.054688 C 9.542969 4.015625 9.535156 3.882812 9.535156 3.296875 C 9.535156 2.199219 9.621094 1.386719 9.746094 1.339844 C 9.78125 1.328125 9.84375 1.371094 9.929688 1.464844 C 10.035156 1.582031 10.152344 1.824219 10.5625 2.777344 C 10.839844 3.417969 11.074219 3.941406 11.082031 3.933594 C 11.085938 3.925781 10.863281 3.371094 10.578125 2.699219 C 10.140625 1.652344 10.042969 1.441406 9.902344 1.261719 C 9.71875 1.03125 9.617188 0.980469 9.570312 1.109375 C 9.515625 1.253906 9.472656 1.847656 9.433594 2.976562 C 9.402344 3.949219 9.402344 4.121094 9.441406 4.144531 C 9.503906 4.183594 9.628906 4.183594 9.628906 4.140625 Z M 11.660156 4.039062 C 11.660156 4 10.703125 1.839844 10.546875 1.527344 C 10.34375 1.121094 10.484375 1.472656 11.03125 2.738281 C 11.546875 3.933594 11.660156 4.167969 11.660156 4.039062 Z M 6.8125 1.527344 C 6.933594 1.398438 7.0625 1.289062 7.101562 1.28125 C 7.699219 1.136719 7.804688 1.125 8.597656 1.121094 C 9.613281 1.113281 9.707031 1.054688 8.722656 1.042969 C 8.023438 1.03125 7.222656 1.097656 7.074219 1.175781 C 6.976562 1.226562 6.746094 1.460938 6.628906 1.625 C 6.558594 1.71875 6.5 1.859375 6.46875 1.988281 C 6.402344 2.289062 6.414062 2.296875 6.511719 2.007812 C 6.585938 1.789062 6.625 1.722656 6.8125 1.527344 Z M 10.429688 1.101562 C 10.4375 1.015625 10.425781 0.972656 10.402344 0.972656 C 10.347656 0.972656 10.324219 1.058594 10.359375 1.152344 C 10.402344 1.261719 10.414062 1.253906 10.429688 1.101562 Z M 7.398438 3.992188 C 7.277344 3.925781 7.285156 3.898438 7.40625 3.960938 C 7.457031 3.988281 7.5 4.019531 7.5 4.027344 C 7.5 4.050781 7.496094 4.046875 7.398438 3.992188 Z M 7.089844 3.453125 C 7.089844 3.40625 7.109375 3.339844 7.136719 3.304688 C 7.179688 3.246094 7.179688 3.25 7.152344 3.339844 C 7.097656 3.527344 7.09375 3.535156 7.089844 3.453125 Z M 4.25 3.167969 C 4.222656 3.125 4.324219 2.996094 4.382812 2.996094 C 4.425781 2.996094 4.425781 3.003906 4.375 3.042969 C 4.339844 3.070312 4.324219 3.105469 4.335938 3.140625 C 4.355469 3.195312 4.28125 3.21875 4.25 3.167969 Z M 3.53125 3.128906 C 3.53125 3.109375 3.546875 3.097656 3.5625 3.097656 C 3.582031 3.097656 3.59375 3.109375 3.59375 3.128906 C 3.59375 3.144531 3.582031 3.160156 3.5625 3.160156 C 3.546875 3.160156 3.53125 3.144531 3.53125 3.128906 Z M 3.691406 3.113281 C 3.691406 3.105469 3.707031 3.089844 3.722656 3.078125 C 3.738281 3.066406 3.753906 3.074219 3.753906 3.09375 C 3.753906 3.113281 3.738281 3.128906 3.722656 3.128906 C 3.707031 3.128906 3.691406 3.121094 3.691406 3.113281 Z M 4.929688 2.515625 C 4.929688 2.484375 5.089844 2.34375 5.125 2.34375 C 5.171875 2.34375 5.152344 2.378906 5.0625 2.457031 C 4.976562 2.539062 4.929688 2.558594 4.929688 2.515625 Z M 11.535156 0.5625 C 11.632812 0.527344 11.792969 0.515625 12.058594 0.519531 L 12.4375 0.523438 L 12.058594 0.546875 C 11.847656 0.558594 11.613281 0.578125 11.535156 0.589844 L 11.390625 0.613281 Z M 13.066406 0.488281 C 13.167969 0.480469 13.332031 0.480469 13.429688 0.488281 C 13.53125 0.496094 13.449219 0.5 13.25 0.5 C 13.046875 0.5 12.964844 0.496094 13.066406 0.488281 Z M 13.683594 0.285156 C 13.617188 0.273438 13.554688 0.25 13.542969 0.234375 C 13.507812 0.195312 13.886719 0.242188 13.925781 0.28125 C 13.964844 0.320312 13.875 0.324219 13.683594 0.285156 Z M 9.351562 0.0234375 C 9.542969 0.0078125 9.976562 0.0078125 10.320312 0.0234375 C 10.933594 0.0429688 10.925781 0.0429688 9.976562 0.046875 C 9.296875 0.046875 9.109375 0.0390625 9.351562 0.0234375 Z M 9.351562 0.0234375 "/>
</g>
</svg>
